<svg xmlns="http://www.w3.org/2000/svg" width="102" height="102" fill="none" viewBox="0 0 102 102">
  <g filter="url(#a)">
    <path stroke="#F2F4F3" d="M24.5 22.5h53v53h-53z" shape-rendering="crispEdges"/>
  </g>
  <path fill="#F2F4F3" d="M45.282 47.148c-.234-1.494-.738-2.619-1.512-3.375-.756-.756-1.764-1.143-3.024-1.161-.936 0-1.755.216-2.457.648a5.542 5.542 0 0 0-1.755 1.728 8.62 8.62 0 0 0-1.026 2.457 12.336 12.336 0 0 0-.324 2.835c0 1.548.216 2.925.648 4.131.45 1.188 1.098 2.124 1.944 2.808.846.684 1.872 1.026 3.078 1.026 1.134 0 2.259-.288 3.375-.864a8.168 8.168 0 0 0 2.808-2.457l1.296 1.188c-.882 1.206-1.809 2.124-2.781 2.754-.972.612-1.926 1.026-2.862 1.242-.918.216-1.746.324-2.484.324-1.386 0-2.646-.243-3.78-.729a9.21 9.21 0 0 1-2.943-2.052 9.662 9.662 0 0 1-1.89-3.051c-.432-1.17-.648-2.43-.648-3.78 0-1.224.198-2.439.594-3.645a10.414 10.414 0 0 1 1.755-3.267 8.486 8.486 0 0 1 2.97-2.349c1.188-.594 2.565-.891 4.131-.891.702 0 1.467.117 2.295.351.846.216 1.638.54 2.376.972l-.108-1.134h2.079v6.291h-1.755Zm20.42 13.122-8.64-11.043c-.233-.306-.476-.63-.728-.972a53.354 53.354 0 0 1-.756-1.053h-.027l.054 8.37c0 .486-.01.954-.027 1.404-.018.45-.045.792-.081 1.026a8.954 8.954 0 0 1 1.08-.054c.45-.018.765-.027.945-.027V60h-6.156v-1.782c.414-.018.756-.072 1.026-.162.288-.09.504-.297.648-.621.162-.324.243-.846.243-1.566l-.054-10.341c0-.486.009-.954.027-1.404.018-.45.045-.792.08-1.026-.287.018-.656.036-1.106.054-.432 0-.747.009-.945.027V41.1h4.239l8.262 10.422c.45.576.819 1.071 1.107 1.485.306.414.567.774.783 1.08h.027v-8.559a35.162 35.162 0 0 1 .08-2.43c-.287.018-.647.036-1.08.054-.431 0-.746.009-.944.027V41.1h6.156v1.782a4.086 4.086 0 0 0-1.026.162c-.288.09-.513.297-.675.621-.144.306-.216.828-.216 1.566V60.27h-2.295Z"/>
  <defs>
    <filter id="a" width="102" height="102" x="0" y="0" color-interpolation-filters="sRGB" filterUnits="userSpaceOnUse">
      <feFlood flood-opacity="0" result="BackgroundImageFix"/>
      <feColorMatrix in="SourceAlpha" result="hardAlpha" values="0 0 0 0 0 0 0 0 0 0 0 0 0 0 0 0 0 0 127 0"/>
      <feMorphology in="SourceAlpha" operator="dilate" radius="4" result="effect1_dropShadow_1_6"/>
      <feOffset dy="2"/>
      <feGaussianBlur stdDeviation="10"/>
      <feComposite in2="hardAlpha" operator="out"/>
      <feColorMatrix values="0 0 0 0 0.94902 0 0 0 0 0.956863 0 0 0 0 0.952941 0 0 0 0.15 0"/>
      <feBlend in2="BackgroundImageFix" result="effect1_dropShadow_1_6"/>
      <feBlend in="SourceGraphic" in2="effect1_dropShadow_1_6" result="shape"/>
      <feColorMatrix in="SourceAlpha" result="hardAlpha" values="0 0 0 0 0 0 0 0 0 0 0 0 0 0 0 0 0 0 127 0"/>
      <feMorphology in="SourceAlpha" radius="6" result="effect2_innerShadow_1_6"/>
      <feOffset/>
      <feGaussianBlur stdDeviation="6"/>
      <feComposite in2="hardAlpha" k2="-1" k3="1" operator="arithmetic"/>
      <feColorMatrix values="0 0 0 0 0.94902 0 0 0 0 0.956863 0 0 0 0 0.952941 0 0 0 0.12 0"/>
      <feBlend in2="shape" mode="lighten" result="effect2_innerShadow_1_6"/>
    </filter>
  </defs>
</svg>
