<svg viewBox="0 0 185.34 77.71" xmlns="http://www.w3.org/2000/svg"><g fill="#ffea00"><path d="m11.75 19.62h.07v.05l-.06-.06z"/><path d="m3.76 67.94c.95.08 1.3-.41 1.58-1.06.16-.37.35-.74.6-1.06.25-.33-.1-.41-.23-.57-.32-.39-.82-.3-1.27-.37-.13-.02-.23-.17-.34-.26.07-.05.13-.13.21-.16.5-.19 1.01-.34 1.5-.55.83-.35.94-1.18 1.43-1.76.21-.25-.1-.6-.34-.86-.19-.21-.18-.54.07-.63.56-.2.77-.57 1.06-1 .48-.71 1.24-1.22 2.17-1.43 1.75-.4 3.35-1.26 5.24-1.24.34 0 .67-.22 1.02-.31.87-.22 1.75-.6 2.62-.59.98 0 1.74-.6 2.66-.52.97.08 1.66-.69 2.63-.6.18.02.36-.46.27-.61-.12-.21-.25-.24-.43-.08-.36.33-.69-.12-.9-.07-.42.09-.76.38-1.27.37-1.31-.04-2.61 0-3.92-.02-.17 0-.35-.07-.51-.13-.07-.03-.16-.11-.16-.17 0-.16 0-.4.09-.45.56-.26 1.12-.62 1.72-.68.7-.06 1.16-.49 1.79-.64.4-.1.33-.53.26-.86-.05-.27-.25-.46-.54-.47-.84-.03-1.68-.05-2.51 0-.91.06-1.68.58-2.66.54-.35-.02-.73.45-1.1.69-.06.04-.22.08-.22.07-.08-.14-.19-.28-.2-.43-.02-.41-.02-.86.64-.88.84-.03 1.47-.66 2.38-.56.82.09 1.49-.56 2.39-.49.62.05.87-.33.6-.77-.22-.37-.35-.73-.47-1.13-.2-.71-.8-1.04-1.63-1.03 0 0 .01.02.02.03h-.04c0 .15.02.31-.02.45s-.17.27-.25.4c-.08-.14-.2-.26-.24-.41-.04-.14-.02-.29-.01-.44h-.05s0-.03.01-.05c-.45 0-.91 0-1.19.37-.2.26-.33.56-.51.83-.21.3-.68.36-.92.13s-.47-.48-.67-.74c-.45-.59-.84-.74-1.81-.54-.56.12-.48.55-.5.92-.57-.11-.94-.41-1.08-.91-.12-.41 0-.79.31-1.14.27-.32.46-.69.72-1.02.09-.11.37-.24.42-.21.7.55 1.25-.07 1.69-.28.71-.34 1.28-.86 2.17-.97.4-.05.24-.54.31-.84.77-.35 1.32-1 2.18-1.26.27-.08.62-.33.58-.71-.36-.15-.72-.3-1.09-.45-.01.07-.02.14-.07.16-.95.43-2.05.56-2.94 1.12-.17.1-.42-.2-.35-.47.25-.94.54-1.8 1.65-2.35 2.1-1.04 4.4-1.46 6.69-1.93.88-.18 1.77-.07 2.69-.43.78-.31 1.83-.1 2.76-.13.18 0 .41 0 .52-.1.63-.5 1.48-.16 2.11-.43.61-.26 1.21-.53 1.83-.38.74.19 1.27-.49 2.04-.22.3.1.81-.18 1.18-.35.39-.17.29-.55.33-.86.05-.4.32-.55.74-.56 1.3-.02 2.61-.02 3.91-.05.46 0 .99.04 1.35-.15.62-.32 1.25-.25 1.89-.27 1.77-.03 3.55-.15 5.3-.02 1.88.13 3.6-.64 5.46-.51.09 0 .2-.18.3-.28-.07-.05-.15-.14-.22-.14-.46-.03-.92-.05-1.38-.05-3.72 0-7.45-.03-11.17 0-1.27.01-2.58-.24-3.82.36-.27.13-.83-.29-1.26-.3-.53-.01-.95.39-1.56.38-2.14-.04-4.28 0-6.42 0-.54 0-.74-.22-1-.63-.23-.36-.87-.51-1.32-.75-.57.64-1.18-.34-1.69 0-.84.57-1.78.34-2.68.41-.82.06-1.65-.13-2.41.36-.23.15-.73.09-1.06-.01-.51-.16-1.09-.34-1.45-.67-.68-.63-1.28-.82-2.14-.25-.2.13-.76.02-1.03-.15-.4-.25-.81-.3-1.26-.31-.05-.25-.22-.46-.47-.44-1.53.07-3.1-.26-4.57.4-.37.17-.65-.21-.88-.45-.12-.12-.2-.11-.24-.09.02-.01.04-.03.09-.09.38-.44.83-.85 1.33-1.17.31-.2.65.14.98.24.78.24 1.6.22 2.4.03.11-.03.16-.21.23-.34.27 0 .54-.02.8-.03.71-.03.83-.14.88-.66.05-.55-.07-.71-.68-.81-.18-.03-.38.01-.55-.03-.26-.07-.5-.17-.41-.49.07-.27.25-.41.56-.43.64-.05 1.38.07 1.9-.17.8-.37 1.6-.4 2.41-.34.95.07 1.66-.63 2.65-.5.81.1 1.74.18 2.47-.07.87-.3 1.73-.41 2.62-.55.09-.01.14-.21.2-.34-1.74-.01-3.49-.02-5.23-.03-.55 0-1.05.1-1.59.27-1.12.35-2.36.35-3.52.1-.41-.09-.76-.4-1.26-.36-1.54.1-3.13-.25-4.61.45-.29.14-.73.06-1.1.04-.16-.01-.31-.14-.46-.22.13-.09.24-.21.39-.27 1.33-.53 2.76-.74 4.18-.97.63-.1 1.3-.01 1.95-.06.25-.02.51-.16.73-.28.14-.08.27-.24.31-.38.02-.05-.21-.23-.35-.24-.46-.05-.92-.05-1.38-.09-.08 0-.16-.09-.21-.15-.01-.02.06-.11.11-.14.47-.27 1.05-.12 1.55-.43.91-.57 2-.83 3.12-.68 1.7.22 3.22-.52 4.85-.58.07 0 .14-.1.22-.15-.05-.05-.09-.13-.16-.15-.17-.05-.35-.13-.51-.12-2 .13-4.07-.4-5.99.46h-2.75c-.09-.29-.27-.5-.68-.49-.32 0-.65 0-.97-.01.02-.23.17-.39.42-.42.59-.05 1.19-.05 1.79-.07.17-.27.51-.66.42-.75-.4-.42-.34-.91-.47-1.37-.04-.13-.52-.31-.67-.24-.5.23-.98.45-1.57.39-1.51-.14-2.84.54-4.29.69-.22.02-.4.37-.67.03-.12-.16.15-.53.52-.71.65-.32 1.31-.54 2.1-.5.73.04 1.47-.03 2.2-.13.22-.03.5-.29.57-.49.05-.14-.16-.42-.34-.55-.34-.24-.76-.39-1.11-.62-.07-.05-.02-.4.07-.43.49-.18 1.07-.23 1.51-.47 1.14-.62 2.36-.81 3.66-.74.37.02.75-.04 1.12-.02 1.08.06 2.05-.27 2.72-.95.78-.8 1.87-.97 2.85-1.36.62-.24 1.44-.09 1.67-.94.06-.22.61.53.82.05.76-1.74 2.61-2.11 4.29-2.63.58-.18 1.2-.28 1.8-.48.66-.22 1.47-.06 2.21-.07.55 0 1.06-.61 1.66-.1.35-.27.7-.53 1.05-.8.41.37.76.25 1.17-.03.28-.19.79-.47.96-.37.67.37 1.17-.17 1.75-.14 1.61.09 3-.56 4.45-1.03.24-.08.28-.22.15-.32-.07-.06-.14-.14-.22-.14-1.12 0-2.28-.16-3.34.07-.96.21-1.95.37-2.89.63-1.29.36-2.7.43-3.82 1.23-.17.13-.55.08-.82.05-.14-.02-.26-.17-.38-.26.73-.71 1.34-1.5 2.55-1.76.98-.21 1.98-.33 2.92-.56.99-.24 1.95-.4 2.96-.4.46 0 .99.04 1.35-.15.62-.32 1.24-.27 1.88-.29 1.36-.05 2.75.15 4.05-.47.29-.14.73-.06 1.1-.03.12 0 .22.17.34.26-.07.05-.16.16-.22.15-.8-.12-1.36.41-2.04.59-.1.03-.16.19-.23.29.16.05.32.14.49.16.28.03.61.09.83 0 1.2-.58 2.5-.47 3.78-.49.54 0 .87-.12.91-.65.02-.21.23-.26.38-.13.35.31.78.35 1.24.3 0-.24-.04-.51.09-.68.12-.16.45-.23.7-.27.27-.05.56 0 .83-.02 2.23-.02 4.46-.09 6.69-.02.65.02 1.25-.58 1.77-.2.66.48 1.16-.38 1.74 0 .57.37 1.26.18 1.89.2 1.21.04 2.42.03 3.62.06.36 0 .79 0 1.05.16.4.26.6.07.93-.05.26-.09.55.41.92.08.38-.34.74.39 1.19 0 .43-.37 1.06-.15 1.61-.19.46-.03.93-.03 1.39-.03 1.21 0 2.41 0 3.62-.03.46 0 1.04.11 1.36-.08.95-.58 1.97-.34 2.96-.35 1.1 0 2.21.07 3.32.11.44.56 1.23-.38 1.65.3.65.03 1.31.13 1.94.06.72-.08 1.17.42 1.82.46.99.06 1.97-.09 2.96.39.83.4 2.03-.1 2.87.59 1.1-.03 2.21-.04 3.31-.09.08 0 .15-.2.22-.34.18 0 .37-.03.55-.04.09-.38.45-.55.78-.41.42.18.67.28 1.18.08.41-.16.82-.66 1.41-.37.58.29.95-.25 1.46-.32 1.14-.16 2.22-.78 3.39 0 .25.16.72.05 1.09.06.84.02 1.68.02 2.51.05.27 0 .46.17.51.43.26 0 .53.03.79 0 .93-.07 1.75.25 2.63.45.68.15 1.13.43 1.64.77.56.38 1.16.37 1.77 0 .6-.38 1.06-.09.99.53-.03.24 0 .49.02.73.02.29.24.43.52.46.46.04.92.02 1.38.03 1.02.01 2.06-.11 3.04.07.95.18 1.84.65 2.71 1.05.42.19.85.26 1.27.39 1.11.32 2.22.67 3.24 1.15.61.29 1.21.26 1.83.33.05.24.22.39.49.44s.55.03.82.07c.08.01.14.1.21.15-.1.1-.18.24-.3.27-.17.05-.37 0-.55.04-.17.03-.33.11-.5.16.07.1.12.25.22.29.83.32 1.66.65 2.61.57.07 0 .15.09.22.14-.09.09-.17.25-.29.28-.87.19-2.1-.52-2.54.79-.03.09-.31.14-.48.16-.28.03-.56.03-.83.01-1.45-.09-2.95.31-4.36-.31-.11-.05-.42.24-.62.39-.21.15-.21.31 0 .34.81.11 1.72.02 2.41.32.83.37 1.64.16 2.43.32.27.05.45.18.47.43-2.27-.07-4.55.29-6.81-.39-1.33-.4-2.7.21-4.02.47-.47.09-.1.36.03.51.17.2.43.34.56.54.24.39-.16.33-.39.36-.16.02-.32.02-.48.03.07.13.13.33.21.34.64.08 1.31.22 1.93.12.66-.11 1.11.58 1.75.25.35-.18.49-.04.49.24 0 .13-.12.35-.24.38-.34.1-.71.11-1.06.18-.08.01-.16.09-.2.16-.02.02.07.14.12.15.45.06.9.1 1.35.17.17.03.48.14.47.17-.06.26-.32.28-.58.28-1.12.01-2.23.02-3.35.05-.07 0-.15.1-.22.15.1.09.19.27.29.27 1.11 0 2.03.63 3.21.54 1.85-.14 3.72-.02 5.59.01.25 0 .72.14.72.22 0 .82.88.73 1.35 1.03.56.36 1.26.16 1.9.2.46.03.93 0 1.4.01.37 0 .75 0 1.12.03.13.01.24.15.37.24-.12.13-.23.25-.35.38-.34.37-.82.32-1.28.32-4.47 0-8.95.03-13.42 0-1.7-.01-3.19.53-4.69 1.08-.08.03-.13.11-.19.17.07.05.13.12.21.16.07.04.16.07.25.08.27.03.55.04.81.08.08.01.14.1.22.15-.05.05-.1.14-.16.15-.45.05-.9.12-1.36.12-.69 0-.5.6-.83.83-.06.04-.29-.09-.44-.14-.16-.06-.4-.2-.48-.15-.9.55-1.93.45-2.93.49-.09 0-.18.18-.26.27.07.05.15.14.22.14.65.03 1.43-.15 1.93.11.88.44 1.77.48 2.68.42 1.33-.09 2.52.35 3.75.64.43.1.87.24 1.28.39 1.41.52 2.79.76 4.23.11.23-.1.53-.11.8-.12.93-.02 1.87-.1 2.79 0 .97.09 1.76-.45 2.67-.47 1.3-.03 2.61-.01 3.91.02.22 0 .44.15.65.23-.17.06-.33.16-.5.17-1.12.03-2.24.03-3.35.07-.14 0-.27.16-.41.24.07.06.13.14.21.16.79.18 1.46.65 2.35.57.72-.07 1.42.16 2.14.33.96.22 1.94.59 2.91.58 1.77-.02 3.4.8 5.18.59.82.47 1.75.46 2.67.48.42 0 .68.22.96.42.27.19.55.36.83.53.08.62.88.45 1.21.83.24.28.35.42.12.78-.32.51-.11.79.43.85.46.05.92.06 1.36.13.09.02.14.2.21.33-1 0-2.06.16-2.96-.11-1-.3-2.05-.57-3.01-1-.79-.36-1.69-.74-2.54-.73-1.33.01-2.47-.54-3.76-.64-1.32-.1-2.68-.39-3.92-.9-.95.16-1.84-.59-2.84-.09-.28.14-.75.07-1.1 0-.49-.1-.94-.44-1.46-.08-.61-.53-1.16-.24-1.73.08-.11.06-.37 0-.52-.07-1.04-.57-2.16-.24-3.24-.25-.28 0-.29.14-.09.33.17.16.35.41-.06.51-.47.11-1.13-.14-1.3.51-.46.05-.89 0-1.25-.3-.15-.13-.33-.08-.38.14-.03.14 0 .37.09.45.2.15.52.16.72.31 1.18.9 1.17.92 1.63.91 1.21-.01 2.42-.03 3.64-.05.48 0 .63-.28.6-.64-.03-.48.13-.79.74-.79h2.8c.07 0 .21.13.2.15-.05.11-.14.28-.22.28-.84.04-1.68.04-2.52.08-.1 0-.21.17-.28.28-.02.03.08.14.14.2.25.23.47.5.9.52.11 0 .21.16.32.25-.07.05-.15.13-.23.14-.46.03-.94.1-1.39.04-.79-.09-1.27.63-2.09.53-.73-.09-1.5-.06-2.23.04-.52.07-1 .35-1.5.54-.06.02-.15.13-.14.15.05.07.13.15.21.15 1.18.09 2.22.69 3.48.58 1.29-.12 2.61-.02 3.91 0 .47 0 1.04-.14 1.38.05 1.12.64 2.35.33 3.52.45.37.04.87-.07 1.08.1.83.68 1.98.18 2.88.73.72.44 1.78 0 2.67.44.91.44 2.01.14 3.02.24.26.03.54.12.76.24.51.3 1.09.13 1.63.21.55.08.87.59 1.52.51 1.14-.14 2.13.29 3.09.77.8.39 1.59.95 2.44 1.05 1.01.12 1.93.59 2.9.58.97 0 1.75.43 2.65.51.74.07 1.51.11 2.23 0 .92-.14 1.54.57 2.39.49 1.15-.1 2.12.48 3.2.63.1 0 .19.24.23.38.08.25-.19.48-.5.42-.33-.06-.75-.31-.96-.2-.43.21-.64.03-.95-.13-.23-.12-.52-.16-.75.06-.27.25-.63.45-.98.21-.57-.39-1.21-.38-1.85-.35-.16 0-.47.13-.46.17.04.28.33.27.57.32.08.02.2.14.19.16-.08.11-.18.28-.29.29-.46.04-.93.02-1.39.05-.07 0-.21.13-.2.15.05.11.19.31.22.3.83-.24 1.33.54 2.09.52 1.14-.04 2.28-.09 2.66 1.21.04.15.46.21.7.33.94.49 1.88.98 2.8 1.49.42.24 0 .43-.14.53-.27.19-.62.3-.93.44-.2.09-.18.2 0 .37.34.3.67.54 1.2.52.94-.04.93-.02 1.34.69.12.21.34.39.52.57.12.12.25.24.37.37.04.05.06.17.05.18-.17.05-.39.17-.5.12-.5-.23-.89-.19-1.46 0-1.35.42.17.82-.06 1.28-.17.34-.17.63-.81.76-.09.02-.19 0-.28.02-.17.05-.33.11-.5.17.1.09.18.25.29.26.46.05.88.08 1.32.31.65.35 1.39.36 2.09.03.23-.11.53-.3.58.04.09.66.86.87 1.05 1.4.11.28.11.67-.03.94-.2.36-.58.23-.95.08-.32-.14-.69-.26-1.04-.27-.64-.02-.65-.44-.83-.8-.05-.1-.26-.15-.41-.22-.21-.67-.82-.46-1.32-.43-.26.02-.27.16-.14.33.14.19.27.42.28.64.02.28-.26.37-.52.47-.15.06-.7.08-.24.41.27.19.64.28.95.44s.54.71.37.82c-.2.13-.46.21-.71.25-.91.18-.96.22-.96.87 0 .24 0 .49.05.73.04.14.22.38.3.36 1.22-.22 1.4.82 2.04 1.29.16.12.29.14.44-.04.39-.48.65.45 1.1.06.55-.49.69.22 1.02.36.24.1.45.22.68.34.09.38.49.39.79.56.18.1.25.41.28.63 0 .08-.25.27-.38.27-.84 0-1.8.2-2.49-.09-1-.43-1.99-.34-2.99-.41-.56-.04-1.11 0-1.59-.32-.03-.02-.19.03-.2.07-.05.15-.13.33-.07.45.12.22.3.43.51.58.47.32.36.58.07.98-.19.26 0 .62.46.72.17.04.32.15.47.24-.15.08-.3.21-.46.22-.55.05-1.07 0-1.16.73-.04.32-.62.58-.92.89-.33.34-.57.12-.92.01-.85-.26-1.73-.46-2.62-.58-.35-.05-1.34-.29-.7.65.02.03-.19.25-.3.26-.37.04-.75 0-1.12.04-.16.01-.45.11-.46.18-.02.3.3.26.52.34.34.12.29.38-.02.42-.41.05-.82.2-.9.48-.26.94-1.25 1.08-1.97 1.51-.22.14-.47.23-.7.36-.34.19-.25.36.31.71.48.31-.05.31-.19.4-.19.11-.65.04-.32.43.18.21.25.39 0 .61-.51.46-1.12.57-1.78.32-.33-.13-.59-.39-.79.15-.1.29-.4.54-.67.75-.99.77-1 .76-.31 1.54.11.13.25.24.36.38.21.27-.03.72-.4.74-.55.02-1.18.2-1.62-.14-.6-.47-1.1.39-1.48.07-.83-.69-1.98-.2-2.88-.74-.47-.28-1.26-.12-1.9-.2-.62-.08-1.1-.56-1.82-.47-.64.07-1.33-.11-1.95.02-.73.15-1.3-.51-2-.19-.19.09-.29.06-.4-.15s-.21-.54-.39-.59c-.42-.12-.92-.01-1.32-.3-.48-.34-1.08-.16-1.61-.27-.43-.09-.82-.33-1.26-.43-.36-.09-.7.01-1.04.2-.66.38-1.5.46-2.08.07-.64-.43-1.49-.08-2.05-.64-.3-.29-.69-.11-.98.1-.2.15-.38.18-.41-.02-.21-1.23-1.28-1.28-2.31-1.23-.71.03-1.19-.44-1.83-.47-.75-.03-1.49-.02-2.24-.03-.34 0-.49-.56-.92-.27-.6.41-1.19.37-1.79.01-.34-.2-.68-.28-1-.02-.39.31-.87.28-1.32.25-.35-.02-.77-.07-1.03-.25-.43-.3-.74.45-1.18 0-.35-.35-.58.24-.93.23-.09 0-.23.04-.27 0-.66-.59-1.66-.22-2.33-.57-.89-.47-1.8-.33-2.7-.42-.08 0-.17-.07-.23-.12-.73-.56-1.6-.29-2.41-.32-.83.6-1.9.49-2.85.75-3.08.84-4.97 1.4-7.19 1.2-.55-.05-1.12.02-1.68.01-.48-.01-.89.23-1.31.29-1.52.22-2.96.87-4.57.7-.74-.08-1.49-.02-2.24 0-.82.02-1.6 0-2.42.38-.59.28-1.46.09-2.2.14-.26.02-.54.11-.76.23-.69.39-1.48.07-2.17.28-.77.23-1.48.62-2.24.89-.24.09-.55.02-.83.03-.37.01-.81-.06-1.1.08-.7.34-1.28.72-1.65-.32-.12-.32-.71-.25-1.02-.16-.6.18-1.14.48-1.84.42-1.07-.09-1.97.34-2.76.92-.54.39-.99.78-1.65.22-1.1.5-2.3.32-3.46.34-.67 0-1.29.06-1.8.47-.8-.2-1.46.65-2.04.41-.55-.22-1.06.08-1.39-.12-.64-.38-.94.31-1.49.22-.63-.1-1.31.03-1.95-.02-.61-.04-1.04.22-1.54.45-.61.29-1.31-.47-1.72-.2-.54.35-.97-.47-1.41.07-.08.1-.59-.14-.87-.1-.35.06-.7.21-.98.39-.5.33-.77.32-.87-.28-.02-.11-.26-.28-.39-.28-.92 0-1.93-.29-2.73.14-.57.31-1.24-.42-1.63.27-.65.01-1.3.03-1.95.03-.75 0-1.49.01-2.24.01-3.45 0-6.91.02-10.36.02-.55 0-1.13 0-1.65-.14-.69-.19-1.32-.57-2-.79-.78-.26-1.33.58-2.12.42-.18-.04-.37 0-.56 0-2.05 0-4.11-.02-6.16-.04-.17 0-.34-.1-.51-.15.16-.18.28-.4.47-.54.57-.43 1.53 0 2-.7.04-.05.37 0 .51.07 1.4.74 2.91.26 4.36.29.4 0 .82-.33 1.23-.51.22-.1.21-.26-.06-.32-.7-.14-1.31-.88-2.06-.48-.88.46-1.78.36-2.7.4-.83.04-1.75-.09-2.48.18-.83.31-1.62.28-2.44.34-.46.03-.93.02-1.39.07-.27.03-.19.15-.15.33.12.54-.11.74-.53.49-.49-.29-.95-.45-1.55-.42-.84.04-1.68 0-2.52-.01-.28 0-.56 0-.84-.02-.08 0-.15-.09-.22-.14.1-.09.19-.19.31-.25.07-.04.19 0 .27-.01.26-.06.51-.14.77-.21-.21-.24-.36-.56-.63-.71-.46-.25-.97-.49-1.49-.58-.72-.13-.39-1.15-1.31-1.07-.24.02-.27-.2-.05-.3.08-.04.16-.08.25-.09.64-.1.59-.53.58-.94 0-.43-.35-.54-.74-.54-.66 0-1.27-.02-1.84-.42-.22-.15-.72-.08-1.05 0-.43.11-.92.26-1.22.53-.6.54-.98-.3-1.48-.1-.4.16-.79.6-1.23.29-.33-.24-.54-.66-.66-1.03-.17-.53-.56-.76-1.09-.97-.33-.13-.17-.75.19-.73h-.09l.02-.04zm14.84-49.52c.13-.08.26-.2.4-.22-.14.01-.27.14-.4.22zm4.41 4.18c1.03-.05 2.12.25 3.05-.4.08.04.17.07.23.12-.06-.06-.15-.08-.23-.12-.94.64-2.02.35-3.05.4zm23.01-18.71c-.15-.05-.3-.1-.46-.15.15.05.3.1.46.15zm103.85 33.55c-.06 0-.12.09-.17.14.03.05.06.09.09.13-.03-.04-.06-.09-.09-.13.06-.05.11-.14.17-.14zm-1.02.05s.08.1.07.13c0-.03-.04-.08-.07-.13-.06 0-.13-.02-.16 0 .04-.02.11 0 .16 0zm4.49 1.87h-.28s-.06 0-.08.02c.03 0 .06 0 .08-.02zm-31.74-8.96c-.16-.06-.33-.12-.49-.17.16.06.33.12.49.17zm-65.38 1.69-.09.09s.06.09.1.14c-.03-.05-.06-.09-.1-.14zm15.19 33.46s-.07.06-.11.08c.06.04.12.1.17.15-.06-.05-.11-.11-.17-.15.04-.02.08-.06.11-.08zm-47.22-7.73c.07-.04.13-.08.2-.12-.07.04-.13.09-.2.12z"/><path d="m176.84 38.24c-.08.04-.16.11-.24.11-.46 0-1.07.17-1.37-.03-.84-.56-1.76-.43-2.67-.49-.27-.02-.64.06-.81-.07-.88-.67-2.05-.11-2.92-.55-.97-.49-1.99-.26-2.99-.34-.58-.05-1.03-.24-1.53-.45-.73-.31-1.49-.64-2.36-.53-.85.11-1.61-.16-2.36-.49-1.4-.61-2.85-1.07-4.45-.99-.27 0-.55-.03-.81-.09-.21-.05-.2-.2-.02-.36.47-.42-.38-.62-.24-.99.64 0 1.29-.05 1.93.02.62.07 1.21.34 1.83.42.64.09 1.31.02 1.95.09.34.04.78.44.97.35.86-.4 1.53 0 2.2.3.44.2.89.31 1.33.24 1.25-.19 2.29.55 3.49.56.52.43 1.17.44 1.83.42 1.5-.05 2.86.42 4.25.82.9.26 1.73.51 2.33 1.17.17.19.38.36.59.53.19.15.22.27.05.36h.02z"/><path d="m148.57 32.47c.09-.02.22.16.33.25-.07.05-.15.14-.22.14h-8.83c-.07 0-.16-.09-.2-.16-.02-.03.06-.15.12-.16.7-.13 1.22-.64 2.02-.6 1.1.07 2.21-.02 3.32.02 1.17.04 2.23.73 3.46.5z"/><path d="m16.23 42.75h.06v.02s-.03.02-.05.03v-.05z"/><path d="m13.67 43.25c-.75.03-1.04.6-1.58.89-.14.07-.34.06-.52.07-.28 0-.15-.2.05-.54.55-.95 1.79-.7 2.57-1.21.5-.33 1.07-.16 1.6-.15.26 0 .42.2.43.45-.94-.17-1.68.46-2.56.5h.01z"/><path d="m159.06 23.56h.09v.08s-.05-.02-.07-.03c0-.02-.02-.03-.03-.05z"/><path d="m157.58 23.36c-.69-.63-1.51-.83-2.47-.8-.26 0-.44-.18-.44-.44.62-.02 1.27-.13 1.86 0 1.01.21 2.08.44 2.53 1.44-.51 0-1.08.17-1.48-.2z"/><path d="m9.76 74.85c.55.37 1.16.43 1.81.42.54 0 1.08.06 1.62.11.06 0 .1.09.16.15-.07.05-.15.14-.22.14-1.01.02-2.01.06-3.02.04-.24 0-.49-.19-.71-.32-.14-.09-.25-.24-.32-.38s.44-.31.68-.15z"/><path d="m.18 64.65c.07-.15.62-.22.71-.09.22.34.43.68.63 1.03.02.04 0 .15-.03.16-.26.05-.52.11-.78.13-.43.02-.67-.17-.71-.65.04-.13.09-.36.18-.57z"/><path d="m159.05 77.06c.2-.12.43-.32.59.04.03.07.02.17 0 .24-.1.25-.32.37-.62.36-.46-.02-.91-.03-1.36-.1-.08-.01-.13-.23-.18-.36.52-.08 1.09.12 1.59-.18z"/><path d="m157.46 77.24h-.04v-.02h.03v.02z"/><path d="m161.95 31.97h-.06s0-.03-.02-.05h.08z"/><path d="m164.26 31.99c.25.01.41.19.43.42-.77 0-1.54.02-2.31 0-.25 0-.41-.19-.42-.43.77 0 1.54-.01 2.31.02z"/><path d="m52.19 2.39c-.54.02-.8-.33-1.05-.68 0 0 .26-.23.34-.21.4.12.78.28 1.16.43 0 .26-.15.44-.45.46z"/><path d="m52.64 1.93v-.03s.05 0 .08-.02c0 .02 0 .05-.02.07-.02 0-.04-.02-.06-.02z"/><path d="m156.1 76.78c.43-.04.87-.02 1.31-.01v.46c-.08.01-.17.02-.24.05-.23.1-.47.32-.66.28-.23-.05-.41-.3-.6-.47-.14-.13-.08-.29.17-.31z"/><path d="m180.37 56.81c-.06.06-.21.13-.23.12-.11-.1-.23-.22-.27-.35-.05-.15-.02-.32-.02-.48 0-.45.1-.47.65-.2.14.07.29.12.43.17.02.36-.33.52-.57.75h.01z"/><path d="m180.94 56.07v-.03h.05v.05s-.03 0-.05-.02z"/><path d="m33.39.35c-.08-.02-.15-.08-.23-.13.07-.05.14-.13.22-.15.17-.04.36-.09.52-.07.26.03.5.13.76.19-.24.09-.48.17-.62.22-.29-.03-.47-.04-.64-.08v.02z"/><path d="m7.65 27.69s.03.13.01.13c-.16.06-.33.1-.59.18-.18-.04-.44-.1-.69-.17-.02 0-.03-.11 0-.14.21-.2 1.06-.2 1.28 0z"/><path d="m140.12 12.78h-.08v-.05h.07s0 .03.02.05z"/><path d="m141.56 13.08s-.14.14-.2.13c-.46-.04-1.08.21-1.24-.43.42 0 .84 0 1.26.03.07 0 .15.17.18.27z"/><path d="m129.01 71.5c.06-.04.2-.07.2-.06.07.13.13.26.17.35.05.35-.17.45-.44.47-.15.01-.32-.07-.48-.11.05-.12.06-.26.15-.36.1-.12.26-.21.4-.29z"/><path d="m53.02 76.79c.17-.03.34-.02.59-.03 0 0 .11-.02.19 0 .16.05.3.13.45.2-.12.08-.24.22-.37.24-.26.04-.53.05-.79.01-.11-.02-.19-.18-.26-.29 0 0 .12-.12.2-.14h-.01z"/><path d="m16.17 31.91c-.12-.06-.22-.16-.33-.24.07-.05.13-.14.2-.14.34-.02.67-.02 1.01-.01.07 0 .13.09.2.14-.1.09-.18.22-.3.25-.16.04-.34.01-.52.01-.09 0-.19.03-.26 0z"/><path d="m182.94 57.45c-.06-.06-.17-.1-.18-.17-.05-.29-.09-.59-.09-.89 0-.07.21-.13.33-.2.31.35.28.71.1 1.08-.03.07-.11.12-.17.18z"/><path d="m125.27 2.43c-.18-.05-.44-.11-.69-.19-.02 0-.03-.12 0-.14.23-.22 1.04-.21 1.27 0 .03.03.02.14 0 .14-.16.06-.33.11-.58.18z"/><path d="m154.05 32.92h.04v.03h-.03v-.03z"/><path d="m152.57 32.75s0-.13.03-.13c.25-.05.5-.12.75-.14.37-.03.66.06.71.43-.43 0-.85 0-1.28-.03-.07 0-.15-.08-.2-.14h-.01z"/><path d="m185.34 60.27c-.07.06-.12.13-.2.16-.36.14-.7-.04-.76-.39.06-.14.13-.28.19-.42.26.22.52.43.77.65z"/><path d="m141.59 73.8c.37-.03.64.1.68.45-.42 0-.84 0-1.26-.03-.07 0-.15-.08-.2-.14-.02-.03 0-.13.04-.14.24-.06.49-.13.74-.14z"/><path d="m136.63 72.05c-.22.07-.44.16-.67.2-.04 0-.12-.17-.19-.27.15-.05.3-.1.45-.15.14.07.27.14.41.22z"/><path d="m8.76 73.33c.24.04.47.13.7.2-.14.08-.27.16-.41.24-.16-.05-.31-.1-.47-.15.06-.1.14-.29.18-.28z"/><path d="m21.1 75.8c.23.01.46.07.75.13-.2.11-.33.23-.47.24-.14.02-.3-.07-.45-.11.06-.09.13-.26.18-.26z"/><path d="m105.86 2.4h.07s-.02.03-.03.05h-.03s0-.03-.01-.05z"/><path d="m104.99 2.09s.13-.1.21-.11c.39-.05.62.07.66.41-.24 0-.48 0-.71-.03-.07 0-.12-.18-.15-.28h-.01z"/><path d="m135.01 15.27c.15 0 .31.12.47.18-.15.07-.3.14-.44.21-.16-.06-.32-.13-.48-.19.15-.07.3-.2.46-.2z"/><path d="m12.76 20.58c-.07-.01-.21-.09-.2-.11.03-.1.08-.27.15-.28.23-.04.47-.03.71-.03-.05.33-.27.47-.66.42z"/><path d="m13.42 20.16s.01-.03.01-.05h.03s.01.03.02.04h-.06z"/><path d="m5.51 24.05c-.13-.01-.26-.13-.39-.2.13-.08.26-.2.41-.21.14-.01.42.07.43.13.04.28-.24.3-.45.28z"/><path d="m9.34 27.2c.07.3-.22.29-.43.27-.15-.02-.28-.12-.42-.18.14-.08.27-.2.41-.21.14-.02.42.06.44.13z"/><path d="m11.58 28.46c-.07-.01-.13-.18-.16-.28 0-.02.13-.1.2-.11.37-.04.63.06.67.41-.24 0-.48.01-.72-.02z"/><path d="m12.3 28.48h.06s-.02.03-.02.04h-.03s0-.03-.01-.04z"/><path d="m134.11 29.54c.23.04.28.19.16.29-.06.05-.14.11-.21.12-.39.04-.63-.08-.67-.43.24 0 .49-.02.72.03z"/><path d="m133.39 29.51h-.07s0-.03.02-.05h.04v.05z"/><path d="m181.64 51.4c-.11-.2-.2-.41.06-.57.04-.03.12 0 .18-.02.06.13.17.26.16.39s-.14.25-.22.37c-.06-.05-.14-.1-.17-.16z"/><path d="m180.68 50.76c.09.13.24.25.24.38s-.14.26-.22.4c-.08-.12-.17-.25-.25-.37.08-.13.15-.27.23-.4z"/><path d="m10.95 52.22c.08.03.14.1.21.15-.07.05-.12.13-.2.16-.24.1-.5.17-.7-.06-.03-.04 0-.1-.01-.12.2-.29.46-.2.71-.12h-.01z"/><path d="m179.82 53.63v-.05s.03 0 .04.02v.03z"/><path d="m179.65 54.43c-.12-.06-.31-.13-.33-.22-.08-.35.11-.55.5-.58v.65c0 .06-.15.16-.17.15z"/><path d="m182.07 56.46c.02.13-.04.37-.14.41-.38.15-.37-.14-.39-.35v-.44c.28 0 .48.13.52.37z"/><path d="m155.06 77.04c-.06.02-.12.05-.18.07-.06-.04-.13-.09-.19-.13.06-.05.12-.1.18-.15.06.07.13.14.19.21z"/><path d="m35.45.14s.12-.07.17-.06c.07.02.13.08.19.12-.12.03-.24.05-.35.08v-.14z"/><path d="m82.1.89c-.21-.08-.25-.19-.1-.28.04-.03.12 0 .18 0 .03.04.09.1.07.14-.03.06-.13.16-.15.15z"/><path d="m107.87 1.35c-.06 0-.13-.09-.2-.14.06-.06.12-.16.18-.17.06 0 .14.09.21.15-.06.06-.12.15-.19.16z"/><path d="m52.72 1.88c.04-.12.07-.25.16-.31.15-.09.29.04.19.17-.06.08-.21.1-.35.14z"/><path d="m32.23 6.28c-.06 0-.13-.09-.2-.14.06-.06.12-.12.18-.18.07.05.14.11.21.16-.06.06-.12.16-.19.16z"/><path d="m141.03 7.65c-.07.08-.21.1-.35.14.04-.12.08-.25.17-.3.15-.09.29.04.18.16z"/><path d="m140.68 7.79s-.02.05-.03.07h-.03s-.02-.03-.02-.05c.02 0 .05-.01.08-.02z"/><path d="m11.41 19.97c-.05-.25.13-.27.31-.29-.04.1-.08.2-.14.29-.01.02-.17 0-.17 0z"/><path d="m11.75 19.62.06.06s-.06 0-.09.01c0-.02.02-.04.03-.07z"/><path d="m154.25 21.79s.16-.04.18-.02c.06.1.11.21.16.31-.19-.02-.38-.03-.34-.29z"/><path d="m154.59 22.08h.07v.04h-.05s-.02-.03-.02-.05z"/><path d="m153.24 22.01c-.06 0-.14-.08-.2-.13.06-.06.12-.16.19-.16s.14.09.21.14c-.06.05-.12.14-.19.15z"/><path d="m11.49 22.21c.28.08.29.2.02.3-.03.01-.12-.09-.19-.14.06-.06.13-.17.17-.16z"/><path d="m159.16 23.64c.11.04.23.08.34.14.02.01 0 .14-.02.15-.28.03-.31-.12-.32-.28z"/><path d="m146.32 24.81s.12-.1.18-.15c.07.04.21.11.2.13-.1.22-.24.23-.38.02z"/><path d="m158.59 28.95v.07s-.03-.02-.05-.03v-.02s.04-.02.06-.02z"/><path d="m158.94 28.67s.04.14 0 .15c-.12.05-.24.09-.37.14.02-.17.05-.34.35-.29z"/><path d="m144.08 30.22s.11-.11.17-.16c.07.05.21.12.2.14-.1.23-.24.24-.38.02z"/><path d="m13.41 30.5s.02-.04.03-.05h.04s.01.03.01.05z"/><path d="m13.06 30.8c-.05-.27.15-.28.34-.29-.05.11-.09.21-.16.31-.01.02-.18 0-.19-.02z"/><path d="m164.78 32.47h-.09v-.05h.07s.02.04.03.06h-.01z"/><path d="m165.12 32.77s-.17.04-.18.02c-.06-.1-.11-.21-.16-.32.19.02.38.03.34.3z"/><path d="m17.09 37.47c.06 0 .12.09.19.14-.06.05-.12.1-.19.15-.05-.04-.12-.09-.19-.13.06-.05.12-.14.19-.15z"/><path d="m178.45 38.76s-.13-.1-.19-.15c.06-.06.14-.18.17-.17.28.08.28.21.02.32z"/><path d="m180.13 39.72s-.13-.09-.19-.13c.06-.05.14-.16.17-.15.28.07.29.18.02.28z"/><path d="m11.82 48.24s-.05-.02-.07-.03v-.07s.04 0 .06.02v.08z"/><path d="m12.15 48.55c-.3.04-.32-.13-.33-.3.12.04.24.08.36.14.02 0 0 .16-.02.16z"/><path d="m181.34 55.72c.08.02.11.2.16.33h-.5c.02-.19.04-.39.34-.32z"/><path d="m181.5 56.05h.05v.04h-.04v-.04z"/><path d="m183.24 60.46s0 .03-.02.05h-.03v-.02h.05z"/><path d="m183.61 60.31c-.06.08-.23.11-.37.15.05-.12.08-.27.18-.33.15-.09.29.04.19.17z"/><path d="m5.76 61.16c.05-.02.12-.07.16-.06.07.02.12.08.18.12-.12.03-.23.05-.35.08v-.14z"/><path d="m1.97 61.58c.07 0 .14.09.21.14-.06.05-.12.15-.19.15s-.14-.08-.21-.12c.06-.06.12-.16.19-.16z"/><path d="m2.72 68.08c-.09.06-.18.12-.27.17-.03-.05-.07-.11-.1-.16.06-.06.12-.11.18-.17.06.05.13.11.19.16z"/><path d="m168.35 70.93c.06 0 .13.09.2.14-.06.05-.11.14-.18.15-.06 0-.13-.08-.19-.12.06-.06.11-.16.17-.16z"/><path d="m122.41 70.89c.07.05.21.12.2.15-.1.24-.24.25-.37.02-.01-.03.11-.11.18-.17z"/><path d="m134.94 72.05c-.06.05-.11.15-.17.15s-.13-.08-.19-.13c.06-.06.11-.12.17-.18.07.05.13.1.2.16z"/><path d="m130.34 71.94s.09.1.08.13c-.02.06-.12.15-.14.14-.2-.07-.23-.17-.1-.26.04-.02.11-.01.16-.02z"/><path d="m127.6 72.11-.16.08c-.06-.04-.12-.09-.18-.13.05-.05.11-.1.16-.15.06.07.12.13.18.2z"/><path d="m98.33 72.89c.07.05.2.12.19.15-.1.24-.24.25-.37.02-.01-.02.11-.11.18-.16z"/><path d="m139.22 73.36c.08.06.21.13.2.15-.1.24-.25.24-.38.02 0-.02.11-.11.17-.17z"/><path d="m10.96 73.42c.07.02.12.07.18.11-.11.03-.22.06-.33.09 0-.05-.01-.09-.02-.14.06-.02.12-.08.16-.07h.01z"/><path d="m81.06 73.91s.09.09.07.12c-.03.06-.12.15-.15.14-.21-.07-.24-.17-.1-.26.04-.02.11 0 .17 0z"/><path d="m146.07 74.58c-.06.08-.21.1-.34.14.04-.11.06-.24.15-.29.15-.09.29.03.19.15z"/><path d="m145.73 74.72s0 .05-.02.07h-.08s.02-.04.03-.06c.02 0 .05-.01.08-.02z"/><path d="m143.79 74.42c.09.05.12.19.16.31-.13-.04-.29-.06-.35-.14-.1-.13.05-.25.19-.16z"/><path d="m142.71 74.61s-.18.04-.19.03c-.07-.11-.11-.22-.16-.33.21 0 .41.03.35.31z"/><path d="m142.36 74.3h-.08v-.05h.07s.02.03.02.05z"/><path d="m145.62 74.8c-.05.11-.1.22-.17.33 0 .02-.18 0-.18-.02-.05-.27.14-.3.35-.31z"/><path d="m144.4 75.09s-.18.05-.19.03c-.07-.11-.12-.22-.17-.33.21 0 .41.02.36.3z"/><path d="m144.04 74.79h-.07s0-.04-.02-.06c.02 0 .05.01.07.02 0 .02.02.03.02.05z"/><path d="m157.49 76.71s-.02.04-.03.06h-.05v-.05h.08z"/><path d="m157.84 76.41c.04.26-.15.28-.35.29.05-.11.1-.22.16-.32 0-.02.18 0 .18.02h.01z"/></g></svg>