<?xml version="1.0" encoding="UTF-8"?><svg xmlns="http://www.w3.org/2000/svg" viewBox="0 0 203.14 46.88"><g style="isolation:isolate;"><g id="Layer_2"><g id="OBJECTS"><g style="mix-blend-mode:multiply;"><path d="M14.22,43.67c-.3,0-.53,.11-.74,.34-.21,.22-.42,.48-.26,.78,.16,.32,.38,.65,.73,.69,.36-.02,.75-.45,.88-.91,.16-.56-.1-.91-.61-.9Z" style="fill:#f2f4f3;"/><path d="M17.35,41.81v-.03c-.21,0-.42,0-.62,0-.51,.02-.75,.55-.51,1.14,.02,.06,.08,.11,.12,.16,.05-.05,.13-.1,.14-.16,.1-.36,.18-.72,.64-.69,.28,.01,.56,.02,.83-.02,.07,0,.13-.17,.19-.26-.06-.05-.11-.13-.17-.13-.21-.02-.41,0-.62,0Z" style="fill:#f2f4f3;"/><path d="M16.22,46.67c.11,.07,.22,.14,.33,.21,.12-.06,.24-.12,.36-.18-.11-.07-.22-.2-.33-.2-.12,0-.24,.11-.35,.18Z" style="fill:#f2f4f3;"/><path d="M1.79,32.3c.05-.04,.1-.09,.15-.13-.04-.05-.08-.13-.14-.14-.04,0-.12,.08-.13,.13,0,.04,.07,.1,.11,.15Z" style="fill:#f2f4f3;"/><path d="M9.37,38.67l.18,.14s.04-.09,.06-.13c-.04-.05-.08-.1-.12-.15-.04,.04-.09,.09-.13,.13Z" style="fill:#f2f4f3;"/><path d="M2.89,39.39c.23-.02,.36-.15,.37-.41-.22,.03-.37,.13-.37,.41Z" style="fill:#f2f4f3;"/><path d="M3.27,38.98s.03,0,.05,0c0,0,0-.02,.01-.02-.02,0-.04-.02-.06-.03,0,.02,0,.04,0,.06Z" style="fill:#f2f4f3;"/><path d="M2.58,39.73s.12,.04,.13,.02c.05-.1,.08-.2,.12-.31-.15,0-.29,.04-.25,.29Z" style="fill:#f2f4f3;"/><path d="M2.83,39.45s.04,0,.06,0c0-.02,0-.03,0-.05-.02,0-.03,0-.05,0,0,.02-.01,.03-.02,.05Z" style="fill:#f2f4f3;"/><path d="M1.25,40.13s.07,.14,.12,.14c.04,0,.09-.08,.14-.13l-.13-.17c-.05,.05-.13,.1-.14,.15Z" style="fill:#f2f4f3;"/><path d="M11.94,41.96c.06,.05,.12,.1,.18,.15,.02-.04,.04-.09,.06-.13-.04-.05-.08-.1-.12-.15-.04,.04-.09,.09-.13,.13Z" style="fill:#f2f4f3;"/><path d="M18.92,42.32c-.22,.08-.22,.19-.01,.29,.03,.01,.1-.09,.15-.14-.05-.05-.11-.16-.14-.15Z" style="fill:#f2f4f3;"/><path d="M20.2,42.32s-.1,.09-.15,.14c.05,.05,.09,.11,.14,.16,.05-.05,.11-.1,.16-.15-.05-.06-.09-.15-.15-.15Z" style="fill:#f2f4f3;"/><path d="M15.85,44.24s-.07,.1-.06,.14c.02,.06,.1,.15,.11,.15,.15-.08,.18-.19,.08-.27-.03-.02-.09,0-.13-.01Z" style="fill:#f2f4f3;"/><path d="M18.9,44.19s-.14,.1-.13,.13c.07,.23,.18,.23,.28,.02,0-.02-.09-.1-.14-.15Z" style="fill:#f2f4f3;"/><path d="M156.71,33.9l-2,.4c1.44,.99,.19,2.47,4.12,3.22,1.66,.21,3.51-.95,3.76-1.13,.79-1.05-3.26-1.96-5.89-2.49Z" style="fill:#f2f4f3;"/><path d="M163.38,32.93l.28-1.36-1.08,1.24c.37-.02,.43,.14,.8,.12Z" style="fill:#f2f4f3;"/><path d="M148.4,33.83l2.08,.55c.06,.16-1,.39-.57,.54l1.86-.11c-.57-1.64-.54-.47-3.37-.98Z" style="fill:#f2f4f3;"/><path d="M140.88,35.09c.72-1.21,4.78-.43,4.38-1.58-.14-.4-.29-.79-.59-1.09,.23-.52-1.07-.96-2.71-1.28,.23-.29,.12-.59-.86-.92-.74,.04-1.11,.06-1.43,.24-.27,.1-.48,.18-.65,.27-.66-.06-1.26-.1-1.73-.12,.69-1.23,4.73-.55,4.31-1.69-.18-.49-.36-.98-.85-1.27l-2.03,.67c-5.09-.43,2.1-1.51-1.33-2.58-.74,.06-1.11,.09-1.41,.28-1.66,.64-1.18,.94-.2,1.53-4.69,.22-3.16-2.89-5.44-3.05,0-.12,.33-.11,.6-.12-.07-.12,.35-.15,.39-.07,.04-.06,.12-.1,.33-.1,.25,.13-.13,.15-.14,.2,.15-.02,.46,.02,.51-.05-.35-.02,.27-.06-.03-.17-.12,0-.04,.07-.21,.09-.05-.1,.05-.15,.2-.18,.21,.03,.23,.2,.27,.24,.13-.05,.4,.05,.56-.08-.26,.09-.68-.01-.54-.14,.23-.02,.1,.1,.19,.1,.11-.04,.51-.11,.41,.07,.24-.05,.2-.11,.08-.2,.27-.02,.25,.08,.14,.13,.15-.03,.12,.05,.24,.05,.11-.09-.12-.15-.04-.22,.12,0,.13,.07,.19,.1,.2-.03,.27-.11,.55-.11,.15,.18,.36-.01,.6,.14-.02-.07-.12-.08,.04-.11,.12,0,.07,.1,.19,.1-.02-.07-.03-.13,.09-.14,0,.02,.01,.03,.06,.03,0,.04-.14,.03-.1,.09,.7-.11,.85-.13,1.33,.05,.07-.12,.4-.09,.57-.05-.06-.09,.07-.09,.09-.14-.27,.04-.15-.07-.14-.13-.21-.03-.3,.01-.52-.03,.03,.09-.19,.08-.27,.12-.05-.06-.16-.09-.25-.13-.01,.07-.4,.11-.45,.08,.04-.07,.42,0,.32-.13-.25,.07-.25-.03-.07-.08-.73,0-.69,0-1.31,.06-.04-.06,.12-.12,.03-.17-.07,.16-.48-.02-.75-.02,.08,0,.21,0,.22-.04-.09-.08-.16,.01-.24-.07,.09-.01,0-.05-.07-.05-.08,.09-.03,.11-.08,.17-.5,0-1.27-.04-1.49-.3,.25,.07,.45-.08,.75,.02-.03-.07,.09-.06,.03-.14-.36-.03-.59-.02-.99-.07,.06-.04,.05-.07-.07-.08,0,.03,0,.07-.1,.06,.06-.04,.05-.07-.07-.08,.04,.05-.25,.1-.28,.04,.33-.03,.02-.17,.25-.23,.27-.01,.17,.16,.3,.1-.08-.02,.03-.09-.13-.11,.09-.02,.29-.12,.39-.05-.11,.06,0,.15,.14,.16-.15-.09-.08-.16-.04-.22,.26,0,.58-.05,.64,.06-.07,.02-.1,.06-.09,.12,.21,.03,.02-.1,.16-.09,.08,0,.21,0,.22-.04-.13-.06-.24,.06-.29-.04,.2,.01,.21-.05,.39-.05,0,.08,.14,.08,.14,.16-.17-.01-.05,.11-.04,.11-.02-.05,.4-.04,.16-.09,0,.03-.09,.04-.11,0,.09,0,.02-.08,.1-.09,.09,.03,.24,.02,.3,.07,0,.05-.16,.02-.16,.06,.15,.09,.48-.23,.58,0-.08,.02-.3-.02-.28,.04,.2,.08,.4-.01,.64,.06-.03-.06,0-.1,.09-.12,.01,.08,.25,.1,.35,.04,.13,.05-.03,.09,.08,.14,.02-.08,.33-.07,.33-.1-.07,0-.14,0-.12-.05,.09-.06,.15,.02,.34-.01,.02-.1-.25-.04-.3-.1,.33,.01,.04-.09,.04-.09,.12-.11,.32,.03,.36,.1-.08-.11,.14-.2-.1-.22-.06,.12-.22-.04-.39,.07,0-.06-.03-.1-.13-.11-.13,.06,.12,.11-.09,.14-.48-.03-.18-.28,.18-.26-.15-.05-.13-.03-.35-.01,.17-.1-.12-.06-.19-.1,.13-.07,.58,0,.61-.11-.36,0-.69,.04-.86,0,.06-.04,.13-.07,.22-.08,0,0,0,.01,0,.02,.54,0,1.14,.02,1.77,.05-.01,0-.03,.01-.04,.02,.07,0,.14,0,.12,.05,.14-.02,.28-.07,.29,.04-.28-.04,.09,.03,.02,.14,.08,0,.21,0,.22-.04-.35,0,.31-.07,.04-.11-.01,.07-.22,.01-.18-.05,.3,0,.39,.1,.65,.11-.01-.05,.04-.08,.11-.1,.35,.02,.69,.04,1.03,.07,.02,0,.05,0,.06,0,.54,.04,1.07,.08,1.56,.12-.07,.03-.17,.04-.15,.1,.13-.02,.22-.04,.29-.08,.18,.02,.37,.03,.54,.05,.32-.03,.6-.07,.87-.11,0,.05,.03,.09,.08,.12,.07,0,.16,0,.17-.04-.12,0-.15-.06-.22-.09,.41-.06,.77-.12,1.06-.19,0,0,.02,0,.03,0,0-.01,.02-.02,.03-.02,.05-.01,.11-.02,.16-.04,.02,0,.03,0,.04-.01,.66-.17,1-.35,1.1-.55,.05,0,.1,0,.17,0,0-.04,.09-.05,.1-.09-.1,.02-.17,.03-.24,.03,.06-.21-.13-.43-.5-.64,.49,.02,1.01-.04,1.43,0,.02,.07,.12,.08,.02,.14,.2-.08,.51-.12,.74-.06-.02-.08,.13-.09,.27-.1,0,.04-.07,.04-.04,.09,.08,0,.12-.02,.17-.04,0,.03-.04,.04-.05,.06,.16-.05,.3,.06,.34-.02-.07-.01-.13-.02-.18-.05,.11,0,.12-.04,.22-.04-.06,.11,.17,.05,.14,.13,.19-.09,.28-.1,.57-.05-.03-.06,0-.1,.09-.12-.13,.13,.42,.1,.52,.03,0,.04-.02,.06-.04,.09,.37-.04,.74-.04,1.04,.04-.06-.12,.35-.09,.5-.08-.02,.03-.05,.07-.1,.09,.08-.08-.26-.07-.23-.02,.32-.03,.22,.08,.31,.13,.15-.16,.2-.1,.07-.28-.17,.01-.66,.08-.58-.03,.05,.08,.08-.05,.17-.04,.25,.01,.23-.01,.46,0-.03-.05,.07-.06,.1-.09-.11,0-.06-.09-.19-.08,.02,.16-.52-.01-.78,.12,.01,.14-.84,.17-1.08,.08,.25-.03,.4-.02,.51-.05-.09,0-.05-.08-.13-.08-.08,0-.39,.03-.33,.1-.12-.08-.29-.01-.41-.04,.09,.08-.16,.15-.21,.09,.04,0,.11,0,.11-.03-.63-.16-1.31,.12-1.85-.09-.14,.04,.08,.13-.03,.14-.29-.14-.81,.08-1.22-.09,0,.03,.02,.08-.04,.09-.05-.04-.25-.05-.4-.03-.1-.05-.2-.11-.32-.16,.2,0,.39,.1,.52,.03-.03-.08-.39-.1-.54-.04-1.59-.71-4.72-1.36-6.28-1.53,.03-.04,.07-.08,.11-.12,.09,.01,.18,.03,.27,.04,.02-.08-.17-.04-.24-.08,.02-.02,.04-.04,.06-.05,.09,0,.18,0,.27-.01,0,.06,.03,.1,.13,.11-.09-.26,1-.07,1.27-.28-.02,.04-.07,.07-.09,.12,.11-.01,.12,.03,.18,.05,.13-.04-.12-.08,.04-.11,.24-.01,.14,0,.07,.05,.24,.01,.08-.14,.32-.13-.01,.18,.3-.03,.36,.1,.12-.12,.28,0,.51-.02,.07-.12-.3,0-.3-.07,.08,0,.04-.05,.1-.06-.08-.07-.12-.15-.26-.18,.03,.18-.18-.02-.33,.07,.04-.03,.03-.05,0-.06,1.12-.04,2.14-.04,1.96-.66,0-.02-.01-.04-.02-.06,.06,.01,.12,.02,.17,.04,0-.08-.11-.05-.02-.11-.05,0-.11-.01-.18-.03-.01-.04-.02-.09-.04-.13,.1-.02,.17-.04,.17-.1-.06,.01-.12,.02-.19,.03-.07-.23-.17-.44-.3-.64,.04,.02,.08,.04,.11,.06,.1-.02,.23-.02,.28-.07-.19,0-.23-.1-.45-.09-.07-.09-.16-.17-.26-.25,.54-.02,1.14-.1,1.56-.03-.12,0-.04-.12-.14-.13-.19,.12-.48,.1-.69,0-.35,.1-.99,.08-1.36,.11-.05-.15-.57-.17-.51-.28-.16-.01-.45,.06-.52,0,.16-.01,.15-.09,.27-.12-.14-.02-.26-.05-.47-.04,0-.07,.09-.09-.08-.11-.45,.02-.96,.08-1.44-.06,.08-.04,.16-.08,.24-.13,.13,0,.26,0,.35-.03-.23-.05,.27,0,.22-.07-.16,0-.16-.17-.03-.19,.13,.02,.21,.06,.2,.16,.14,0,.29-.02,.27-.1-.32,.06-.09-.14-.2-.13-.02,.04-.08,.07-.16,.09-.01-.05-.06-.06-.1-.06,.09-.07,.16-.14,.2-.21,.13-.05,.27-.1,.41-.11,0-.05-.03-.09-.08-.11,.51-.07,1.04-.24,1.31-.09,.19-.03,.54,.01,.62-.06-.2-.02-.23-.15-.37-.12,.19-.04,.32-.11,.43-.19,.07,.08,.41,0,.53,.06,.05,.07-.27,0-.22,.07,.62,.16,1.65-.02,2.26,.12-.11,.09-.51-.06-.56,.08,.23,.06,.51,.01,.82,.08,.06,.1-.07,.13-.27,.12-.03-.16-.78-.05-.56-.25-.26,.07-.59,.1-.8,0-.11,.02-.03,.11-.21,.09-.03-.05,.07-.06,.1-.09-.29,.13-1.36,.07-1.74,.22-.02-.05-.05-.09-.13-.11-.03,.07-.18,.08-.2,.15,.21-.04,.19,.05,.3,.07,.01-.04,.27-.11,.34-.04,.03,.06-.16,.04-.16,.09,.05,0,.11,0,.12,.02-.04,0-.11,0-.11,.03,.26,0,.55-.19,.74-.06-.22-.02-.1,.1-.21,.12-.27-.05-.68,.06-.79,.09,.36-.04,.32,.14,.55,.17-.21,.05-.12-.07-.3-.04-.02,.16,.16,.21,.33,.26-.16-.01-.1,.06-.16,.09,.16,.04,.47-.02,.31,.13,.17,0,.44-.05,.47,.04-.1,.06-.48,.01-.44,.13,.94-.37,1.46,.36,2.37,.09-.05,.13,.15,.12,.26,.16-.08,.1-.22,.19-.36,.27-.12-.05-.14,0-.28,.01-.17-.04,0-.11-.19-.1,0,.05,.03,.09,.08,.11-.26,.03-.35,0-.75-.02-.08,.1-.24,.1-.14,.2,.38-.05,.55,.05,.9-.1-.13,.06,.22,.28,.31,.13-.09,0-.21,.02-.23-.02,0-.04-.04-.1,.04-.11,.24,.02,.38-.1,.41,.04-.08-.03-.22-.03-.22,.04,.2,0,0,.05,.19,.08,.13-.08,.58-.11,.74-.03,0,.03,0,.06,.01,.08-.26-.05-.38,.2-.28,.07,.43,.06,.59-.19,.64-.28,.16-.02,.07,.1,.19,.1,0-.13,.29-.14,.42-.21-.09,.02-.21-.09-.08-.11,.36,.04,1.04-.04,1.33,.05-.04,.05-.18,.09,.02,.11-.01-.19,.49,.03,.62-.06,.03-.1-.24-.02-.2-.13,.29,.02,.18-.13,.37-.16,.25,.09,.98,.04,1.2-.02-.11-.09-.31,.04-.41-.07,.09-.06,.04-.17,.13-.23,.11,.03,.4-.03,.5-.08-.22-.02-.3-.06-.08-.11-.48-.03-.74,.08-1.25,.06,0,.05-.02,.09-.09,.12-.04-.05-.27,.01-.29-.04,0-.1,.34-.05,.32-.15-.17-.01-.67,.12-.64-.03-.1,0-.19,0-.29,.01,.06,.19-.71,.12-.52-.03-.27-.02-.68,.05-.71-.11,.36,.05,.63,.02,.91-.07-.11,0-.12-.07-.29-.04,.05,.07-.11,.06-.16,.09-.03-.06-.25-.02-.3-.07,.03-.09-.11-.08-.14-.13,.25-.09,.57,0,.81,.02,.01-.11-.33,0-.36-.1,0-.05,.16-.02,.16-.06-.07-.06-.4,.03-.47-.04,.13-.04,.38-.03,.38-.13,.2,.02,.37,.07,.54,.12-.13-.1,.26-.13,.29-.29-.26,.11-.64,.26-.91,.07-.28,.05-.73,.07-.92-.02,.14-.04,.26-.08,.32-.15-.14-.11-.43,.1-.63,.03,.07,0,.13-.01,.1-.06-.17,0-.19,.06-.27,.1-.11-.01-.31-.12-.15-.19,.72,.08,1.34-.04,2.09,.1-.44,.07-.95-.12-1.14,.08,.26-.09,.38,.07,.51-.05,.25,.04,.31,.16,.53,.09-.2,.03-.07-.07-.01-.08,.19,.02,.17,.03,.41,.04,.02-.15,.54-.09,.53-.25-.53,.18-1.15,0-1.63-.1-.15,.05,.12,.11-.03,.14-.08-.01-.15-.04-.19-.08,.14-.14-.05-.1-.22-.24,.31-.06,.21,.12,.42,.12,.14-.02,.34-.15,.44-.1,0,.04-.1,.03-.1,.06,.09,.01,.15,.03,.24,.05-.03-.06,0-.1,.09-.12,.06,.14,.21,.23,.5,.23,.01-.05-.1-.07-.01-.08,.21,.05,.53,.04,.71,.11,.09-.09,.26,0,.45-.08,0,.13,.51-.03,.53,.09,0-.02,.04-.03,.11-.03,.03-.27-.78-.06-.96-.21,.32,0,.2-.07,.04-.09,.43-.16,.96,.19,.98,.01,.15,0,.54,.14,.47,.06-.27-.03-.05-.02-.08-.14-.07-.06-.35,.08-.46,0,0-.04,.41-.04,.22-.07-.25,.03-.23,0-.39,.07-.09-.03-.11-.1-.2-.13-.09,.02,.04,.14-.15,.12-.13-.29-.85-.1-1.19-.23,.79-.12,1.55-.06,2.11-.09-.06,0-.08-.05,0-.06,.06,0,.11,0,.17,0,0,.06,.03,.11,.08,.14,.21-.07,.25,.05,.47,.06,.42-.08,1.53-.06,1.9,0,.28,0,1.26-.08,1.57,.1,0-.04-.04-.1,.04-.11,.29,.03,1.16,.09,1.17,.09,.03-.04-.06-.11,.04-.11,.12,.02,.15,.1,.25,.13,.26-.18,.67,.09,1.03-.05-.09-.13-.26-.03-.23,0-.1-.01-.24,0-.3-.04,.24,0,0-.04-.01-.08,.08-.04,.14-.04,.23-.01-.03-.22-.61,0-.86,0-.28,0-.18-.2-.49-.17,0,.06,.09,.05,.13,.08-.25,.05-.56,.11-.75,0,.2-.03,.03-.12-.13-.11-.1,.07-.2,.04-.38,.1,.13-.14-.35-.01-.14-.16-.3,.01-.09,.08-.27,.12-.17-.11,0,.02-.22,.04-.04-.06-.18-.05-.08-.11-.32,0-.49,.08-.74,.03-.05,.04-.08,.09-.15,.12-.24-.03-.47-.05-.81-.02,0-.21-.86-.17-1.15-.31,0,.03,.02,.08-.04,.09-.15,0-.15-.16-.3-.07-.03,.1,.24,.03,.2,.13-.3,.04-.81,.13-1.14,.08,.2,.03,.31-.11,.21-.12-.13,.05-.21,.12-.44,.13,.05-.04,.04-.1,.09-.14-.31-.02-.63,.06-.86,.04,0-.03,.06-.05,.1-.06,.4-.04,1.06,.07,1.25-.08-.4,.06-.93-.06-1.43,.03,0-.15-.76,.08-.94-.1-.57,.15-1.63,.08-2.07-.02,.04,0,.06-.03,.05-.06-.15,0-.27,.03-.33,.07,.07,0,.14,0,.12,.05-.4,.02-.51-.02-.75,0,.02-.04,.07-.07,.09-.12-.34,.05-.36-.08-.69-.02,.04,.08,.2,.07,.02,.14,0-.08-.17-.06-.25-.1-.1,.05,.12,.11-.09,.14-.37,0-.37,.03-.74,.06,.01-.11-.36-.09-.21-.19-.35,0-.45-.07-.62,.06,.07-.09-.14-.1,.02-.2-.11,0-.12,.04-.22,.04,.04,.06,.16,.14-.03,.17-.63-.03-1.42-.11-1.83,.05-.01-.05,0-.09,.04-.11-.1,0-.19,0-.29,.01,.05,.07,0,.1-.16,.09,.12-.12-.13-.05-.14-.16,.25-.08,.48,.02,.81,.05,.11-.17,.86-.13,.97-.04-.26-.17-1.1-.14-1.34-.08-.36-.06-.67-.14-1.12-.15,.05,.07-.11,.06-.16,.09-.03,.09,.11,.08,.09,.16,.22,.03,.1-.08,.28-.07-.06,.14,.25,.06,.21,.19-.27-.01-.67-.12-.74,.03-.1,0-.19,0-.28,.01,.05-.04,.04-.1,.09-.14-.33,0,.08,.15-.26,.15-.12-.04-.14-.11-.23-.02-.19-.09,.09-.15-.03-.19,0,.05-.38,.06-.4,.02-.03-.06,0-.1,.09-.12-.07,.14,.34-.03,.51-.02,.07,.04,.09,.11,.2,.13,0-.14,.31-.03,.4-.02-.08-.18-.4-.13-.54-.14-.02-.09,.2-.03,.27-.12-.23,.03-.46,.12-.57,0-.01,.07-.41-.01-.27,.12,.17,.03,.28-.09,.34-.02-.21,.13-.37,0-.58-.03-.05,.09,.19,.01,.13,.11-.06,0-.06,.03-.11,.03-.31,.02-.36-.04-.6-.11-.16,.02,.1,.04,.07,.08-.08,0-.12,.02-.17,.04-.09-.02-.19-.03-.19-.1-.03-.07,.22-.03,.15-.12-.22,.03-.29,.04-.46,0-.12,.03-.08,.12-.27,.12-.12,0-.13-.07-.24-.07-.08,.04-.41,.09-.68,.03-.05,.06-.18,.08-.27,.12,.28,.02,.4-.05,.52,.03-.07,.02-.12,.04-.16,.06,.14,0,.17-.05,.28-.07-.04,.17,.36,0,.41,.07-.01,.04-.07,.06-.04,.11,.32-.09,.82-.14,1.04,.01-.09-.16,.6-.06,.36,.07,.3-.01,.09-.08,.27-.12,.03,.05,.14,.06,.14,.13-.5,.16-.84,.06-1.33-.05-.36,.09-.51,.04-.73,.09,0-.03-.01-.06-.02-.08-.02,.08-.63,.05-.44,.13,.11-.07,.48-.04,.52,.03-.36,.03-.56-.02-.92,.01,.07-.09-.03-.08-.14-.13,.02,.09-.07,.11-.16,.11-.31-.68-.61-1.28-1.71-1.34-1.73,.09-2.17,.62-2.25,1.23-.28,.01-.56,.01-.72-.03-.14,.04-.55,.08-.94,.09-2.2-1.31-6.55-2.38-10.33-2.66-2.11,.24-4.31,0-6.6-.29,.16,0,.39-.09,.45-.23,.08-.18,.36-.2,.64-.18,.13,0,.26,.03,.39,.05,.63,.1,.79,.12,.92-.13,.18-.31,.53-.14,.81-.2,.42-.09,1.16-.1,1.04-.54-.02-.08,.18-.19,.31-.27,.15-.1,.14-.22,.02-.3-.34-.23-.71-.45-1.1-.66-.13-.07-.35-.11-.54-.13-.4-.04-.82-.05-1.22-.07-.3-.3-.9,.08-1.22-.16-.74,.13-1.4-.09-2.08-.16-.36-.04-.7-.2-1.12-.21-.41,0-.83-.06-1.23-.03-.44,.04-.68-.24-1.09-.15-.18,.04-.34,.11-.43-.05-.08-.14,.15-.26,.48-.26,.48,0,.96,.02,1.44,.02,.13,0,.31,0,.38-.05,.16-.11-.11-.17-.14-.26-.07-.17-.06-.37-.21-.52-.18-.18-.31-.34,0-.49,.25-.12,.16-.39,.56-.42,.24-.02,.63,0,.74,.07,.14,.11-.17,.11-.33,.14-.09,.02-.15,.08-.22,.12,.41,.11,.81,.27,1.25,.32,.52,.07,1.09,.05,1.63,.08,.06,0,.11,.04,.16,.07-.08,.04-.15,.11-.23,.11-.41,0-.82,0-1.23,0-.24,0-.43,.05-.48,.15-.07,.14-.15,.36,.1,.41,.45,.08,.7,.38,1.22,.34,.59-.04,1.01,.17,1.52,.25,.58,.09,1.24-.04,1.76,.22,.01,0,.12-.02,.14-.04,.04-.07,.13-.15,.08-.2-.08-.1-.22-.19-.38-.26-.26-.11-1.7-.23-2.2-.22-.07,0-.15-.08-.21-.13-.03-.03-.03-.08,0-.11,.15-.16,.31-.31,.47-.47,.1-.1,.26-.1,.29,0,.08,.25,.31,.39,.81,.36,.74-.04,1.33,.05,1.51,.5,.77,.28,1.51,.58,2.44,.7,.12,.01,.28,0,.37-.04,.09-.04,.15-.12,.15-.18,0-.07-.05-.15-.14-.19-.3-.14-.63-.26-.95-.38,.04-.31-.53-.29-.81-.42-.25-.11-.58-.19-.77-.32-.15-.1-.13-.3-.49-.16-.41,.16-.94,0-1.36,.2-.2,.09-.24-.09-.28-.18-.01-.03-.04-.08-.08-.09-.31-.06-.64-.1-.93-.18-.29-.08-.1-.38-.58-.39-.2,0-.39-.04-.59-.07-.06,0-.1-.05-.16-.07,.05-.02,.1-.06,.16-.07,.74-.04,1.5-.08,2.18,.11,.32,.09,.62,.13,.96,.15,.81,.03,1.6,.02,2.37,.24,.38,.11,.94,.04,1.41,.03,.07,0,.18-.1,.2-.16,.01-.06-.06-.18-.11-.19-.54-.02-.98-.16-1.43-.29-.07,.14-.24,.2-.52,.16-.2-.03-.3-.11-.29-.22,0-.06,0-.13-.01-.19-.26-.01-.53-.02-.79-.04,0-.03-.01-.07-.05-.08-.7-.22-1.15-.2-1.63,.12-.11,.07-.18,.12-.28,.07-.44-.23-.89-.44-1.56-.45-.15,0-.36-.14-.41-.23-.17-.35-.6-.44-1.2-.43-.54,0-1.09-.04-1.63-.04-.27,0-.45,.05-.62,.21-.38,.37-.41,.31-1.34,.23-.64-.06-1.04-.3-1.59-.42-.27-.06-.47-.13-.72-.01-.18,.09-.32,.07-.49-.02-.22-.12-.37-.3-.74-.32-.06,.17,.04,.39-.46,.42-.05,.05-.1,.14-.17,.15-.21,.02-.22-.07-.25-.15-.22,0-.36,.05-.41,.17-.05,.12,.07,.23,.26,.25,.33,.04,.68,.02,1.02,.05,.09,0,.15,.08,.23,.13-.05,.02-.11,.07-.16,.07-.75,0-1.5,0-2.24-.04-.83-.05-1.59,.02-2.32,.23-.15,.04-.3,.18-.52,.05-.39-.22-.73-.09-1.08,.04-.37-.21-.85-.2-1.33-.21-.89-.02-1.78-.04-2.66-.08-.33-.01-.74,0-.98-.09-.43-.17-.89-.16-1.36-.17-2.53-.06-5.05-.12-7.58-.19-.51-.01-.51-.02-.63-.42-.02-.07-.09-.13-.14-.19-.09,.03-.21,.05-.27,.1-.36,.25-1.11,.34-1.51,.17-.02,0-.03-.05,0-.07,.04-.03,.11-.07,.16-.06,.64,.03,1.06-.03,1.01-.47-.02-.15,.28-.32,.43-.48,.14-.15,.32-.07,.46,0,.15,.07,.25,.08,.3-.03,.04-.1,.04-.2,.06-.3-.97,0-1.95-.2-2.9,.13-.22,.08-.73,.04-.96-.06-.4-.16-.87-.18-1.29-.27-.08-.02-.11-.09-.16-.15-.25,.01-.53-.09-.75,.04-.33,.18-.77,.31-.94,.57-.04,.07-.14,.12-.21,.18-.08-.09-.14-.19-.25-.28-.17-.15-.41-.17-.68-.07-.11,.04-.28,.11-.33,.09-.33-.11-.8-.21-.91-.37-.19-.27-.28-.24-.64-.1-.31,.13-.15,.45-.68,.47-.02,.03-.02,.06-.06,.09-.42,.34-.93-.28-1.36,.03-.08-.04-.17-.08-.22-.13-.07-.06-.07-.18-.14-.19-.85-.11-1.55-.39-2.35-.56-.05-.01-.13,.01-.18,.03-.12,.04-.08,.09,.04,.16,.06,.04,.06,.16,.05,.16-.6,.09-1.19,.07-1.78-.04-.26-.05-.09,0,0-.07,.27-.24,.18-.31-.29-.31-.27,0-.56-.04-.81,0-.3,.04-.6,.31-.88,.14-.43-.26-.71,.05-1.05,.02-.26-.02-.51-.08-.77-.12-.11-.02-.28-.07-.32-.04-.4,.19-.72,.13-1.08-.04-.14-.06-.38-.09-.57-.08-.79,.03-1.63-.19-2.39,.12-.08,.03-.27,.01-.39-.01-.25-.06-.5-.12-.71-.21-.66-.27-1.33-.34-2.08-.12-.11,.03-.26,.07-.38,.06-1.03-.11-2,.12-3,.18-.55,.03-1.16,.07-1.49,.38-.34-.01-.79,.03-.98-.06-.37-.19-.75,.04-1.05-.08-.36-.16-.79-.14-1.18-.12-.55,.03-.84-.22-1.29-.27-.13-.02-.28-.01-.41,0-.35,.04-.7,.23-1.06,0-.37,.21-.91,.09-1.35,.21-.65,.17-1.46,.14-1.96,.51-.07,.05-.32-.2-.65-.07-.23,.09-.38,.37-.78,.2-.39-.17-.59,.13-.9,.07-.12-.02-.28-.05-.32-.1-.05-.06-.03-.15,.03-.21,.06-.05,.22-.07,.33-.11,.12-.03,.24-.07,.35-.1-.09-.04-.17-.11-.27-.12-.34-.02-.68-.03-1.03-.04-.41,0-.83-.04-1.23,0-.32,.03-.57,.19-.95,.18-.4-.01-.81,0-1.21,.03-.12,0-.23,.08-.33,.13-.08,.05-.14,.11-.19,.16,0,0,.1,.05,.16,.06,.97,.17,1.85-.12,2.79-.15,.22,0,.36-.25,.65-.05,.12,.08-.18,.19-.63,.33-.38,.12-.76,.19-1.16,.15-.9-.08-1.71,.13-2.56,.21-.08,0-.18,.1-.19,.16-.01,.06,.07,.13,.13,.19,.03,.02,.12,.03,.18,.04,.12,.03,.23,.07,.34,.11-.1,.04-.19,.1-.29,.1-.27,.02-.55,0-.82,.01-.53,.03-1.18-.08-1.46-.27-.22-.15-.49-.22-.86-.25-.92-.08-1.7,.18-2.54,.26-.91,.08-1.75,.38-2.73,.29-1.01-.1-1.85,.1-2.63,.42-.22,.09-.42,.2-.72,.17-.19-.02-.52-.05-.53-.1-.04-.12,.22-.11,.39-.14,.07-.01,.12-.08,.18-.12,0,0-1.45-.24-1.45-.24-.14,.08-.27,.16-.41,.24,.12,.03,.23,.07,.35,.1,.11,.03,.22,.07,.34,.1-.09,.06-.17,.11-.26,.17-.26,.16-.6,.14-.95,.14-.94-.01-1.6,.35-2.41,.51-.2,.39-.87,.56-1.33,.81-.36,.2-.57,.4-.53,.68,.05,.33-.03,.6-.83,.57-.79,.27-1.7,.45-2.37,.82-.06,.04-.07,.11-.07,.17,0,.02,.1,.06,.16,.06,.34,.02,.7,0,1.02,.05,.32,.05,.58,.19,.68,.38,.06,.11-.26,.35-.55,.44-.29,.09-.51,0-.73-.08-.23-.1-.45-.16-.72-.03-.21,.1-.4,.25-.63,.27-.69,.06-.57,.23-.39,.49,.06,.09-.36,.31-.29,.36,.44,.31,.22,.64,.24,.97,.02,.18,.02,.35,.2,.53,.29,.29,.31,.57-.49,.66-.09,.01-.19,.11-.21,.17-.05,.18-.05,.37-.07,.55-.03,.22,.15,.34,.55,.38,.21,.02,.19,.07,.07,.15-.12,.08-.29,.23-.23,.28,.32,.25,.02,.44-.06,.67-.07,.19-.32,.34-.35,.49-.04,.18,.22,.39,.41,.57,.26,.25,.18,.5,.15,.76,0,.04-.22,.11-.24,.1-.38-.18-.53-.13-.59,.13-.08,.36,.12,.74-.34,1.07-.12,.09,.26,.53,.59,.61,.6,.14,.43,.3,.17,.5-.04,.03-.11,.08-.1,.08,.26,.19,.34,.37,.33,.55-.16,0-.32-.04-.48-.13-.18-.1-.36-.26-.55-.29-.4-.06-.37,.36-.51,.6-.19,.32-.46,.59-.7,.88-.28,.34-.54,.29-.93,.12-.57-.24-1.13,.4-1.75,.23-.09-.03-.24,.13-.34,.22-.04,.04-.04,.15-.02,.22,.04,.13,.09,.36,.17,.37,.69,.12,1.4,.34,2.03-.21,.28-.24,.5-.09,.76,.08,.17,.11,.51,.24,.57,.17,.21-.27,.48-.34,.75-.35,0,.12,.02,.24,.21,.33,.6,.3,.66,.67,.49,1.03-.52-.02-1.03,0-1.55,0-.32,0-.5,.26-.7,.47-.14,.14-.16,.27-.03,.39,.22,.19,.43,.43,.68,.52,.26,.09,.56,0,.85,0,.21,0,.46-.04,.62,.06,.24,.15,.54,.4,.57,.65,.02,.18-.31,.57-.53,.61-.55,.1-1.13,.07-1.69,.09-.4,.01-.58,.2-.7,.66-.15,.57-.79,.83-.91,1.52-.09,.48-.11,.81,.31,1.01,.31,.14,.65,.23,.97,.34,.05,.83,.62,.65,1.1,.7,.4,.04,.64-.25,.95-.41,.36-.18,.62,.29,.95,.36,.12,.03,.29-.02,.4-.1,.3-.24,.63-.31,1-.32,1.47-.02,2.96,.18,4.4-.4,.06-.02,.13-.02,.21,0-.05,.06-.13,.11-.22,.15-.04,.02-.07,.04-.09,.06-.58,.06-1.14,.16-1.69,.33-.02,0-.03-.01-.05-.01-.11,0-.24,.05-.35,.08,.03,0,.06,.02,.09,.03-.35,.12-.7,.27-1.04,.46,.09,.38,.24,.67,.43,.92-.86,.14-1.69,.37-2.46,.76-.06,.01-.11,.03-.16,.04-.27,.08-.51,.26-.77,.35-.31,.11-.53-.5-.93-.13-.29,.28-.46-.23-.72-.25-.21-.01-.42-.01-.63,0-.06,0-.11,.09-.17,.14-.38,.34-.71,.75-1.21,.91-.13,.04-.08,.22,.1,.3,.17,.08,.46,.04,.41,.31-.04,.19-.37,.51-.41,.48-.48-.32-1,.32-1.3,.09-.65-.49-.94-.09-1.09,.42-.14,.48-.36,.6-.75,.59-.21,0-.43-.02-.64,.02-.09,.02-.18,.16-.24,.27-.02,.03,.05,.15,.11,.19,.3,.2,.61,.36,.9,.57,.56,.41,1.35,.54,1.48,1.49,.02,.12,.33,.21,.52,.28,.19,.08,.5,.07,.56,.2,.12,.25,.15,.59,.11,.87-.05,.28-.22,.53-.34,.8,.42,.11,.6,.57,.94,.79,.43,.27,.97,.1,1.38,.5,.22,.21,.56,.1,.63-.31,.06-.38,.29-.5,.6-.5,.64,0,1.1-.68,1.78-.57,.04,0,.15-.24,.15-.37,0-.13-.07-.31-.16-.38-.23-.17-.5-.27-.73-.44-.24-.19-.34-.47-.36-.8-.02-.33,.14-.71,.37-.72,.43-.01,.85-.02,1.28,0,.42,.01,.56,.31,.38,.79-.25,.67-.25,.66,.33,1.1,.17,.13,.33,.3,.47,.47,.2,.22,.34,.35,.68,.14,.57-.35,1.34-.42,1.83-.07,.74,.52,1.58,.11,2.24,.54,.76,.49,1.53,.15,2.29,.26,.21,.03,.43-.01,.64,.02,.2,.04,.46,.07,.58,.21,.52,.64,1.16,.84,1.91,.74,.83,.66,1.68,.69,2.58,.15,.08-.05,.34,.18,.48,.32,.22,.22,.09,.37-.13,.44-.41,.13-.82,.59-1.26,.05-.03-.04-.17-.04-.2,0-.35,.4-.69,.37-1.06,.02-.06-.06-.26,.05-.39,.1-.02,0-.03,.11-.02,.16,.33,1.12,.55,1.24,1.51,.89,.9-.33,1.79-.4,3.08,0,.34,.11,.6-.4,.91,.01,.19,.25,.35-.09,.53-.16,.2-.08,.4-.13,.59,.06,.3,.29,.62,.34,.95,.05,.3-.28,.69-.29,1.01-.2,.79,.21,1.54,.82,2.35,.03,.07-.07,.39,.1,.56,.22,.4,.3,.93,.31,1.22,.12,.81-.53,1.64-.35,2.48-.36,1.42-.03,2.85-.05,4.27-.05,.43,0,.83-.08,1.2-.33,.47,.46,.9,.28,1.32-.1,.89,.27,1.59-.58,2.45-.51,.5,.04,1.01-.07,1.49,0,.61,.09,1.03-.49,1.61-.47,.35,.01,.68-.03,1.02-.22,.65-.36,1.38-.42,2.03-.07,.49,.26,.86,.29,1.38,.07,.65-.28,1.33-.82,2.1-.28,.07,.05,.27-.06,.37-.14,.45-.36,.92-.43,1.37-.04,.32,.28,.74,.38,.98,.18,.58-.47,1.2-.42,1.83-.43,.56-.01,1.07-.05,1.63-.3,.62-.28,1.37-.31,2.04,.1,.52,.32,1.09,.29,1.61-.03,.26-.16,.52-.19,.8-.24,.36-.06,.53,.59,.93,.24,.37-.32,.81-.22,1.23-.23,1.28-.02,2.56,0,3.85,0,4.56,0,9.12-.02,13.67-.04,.42,0,.92,.07,1.23-.15,.44-.31,.95,.41,1.27-.22,.5-.01,1-.03,1.49-.04,1.14-.01,2.28-.01,3.42-.03,.35,0,.77,.07,1.03-.11,.53-.37,1.08-.31,1.64-.31,.42,0,.93,.09,1.26-.13,.68-.45,1.37-.34,2.07-.35,.74,0,1.49,0,2.23-.01,.69,.22,1.38,.52,2.07,.95l-.67-.42c-.09-.24,.43-.32,.84-.41-.06-.04-.12-.09-.18-.13,1.56,0,3.12-.01,4.68-.02,.63,0,1.22-.05,1.86-.31,.62-.26,1.39-.07,2.1-.07,1.2,.77,2.5,.27,3.75,.35,.76-.63,1.63-.35,2.46-.39,.64-.03,1.35,.11,1.89-.15,.13-.06,.25-.11,.37-.15,.81,.22,1.96,.46,3.95,.71,3.61-.51,7.91-1.23,12.17-.95,1.55,.08,2.95,.85,2.69,1.2,1.86-.1,4.52-.08,6.44-.02,8.22-1.49-1.03-2.95-4.11-3.13Zm-4.49-11.15c0-.07,.19-.02,.23,0-.03,.03-.15,.05-.05,.06-.05,.05-.24,.04-.33,.07-.13-.1,.33-.08,.15-.12Zm-1.41-.16c.11,0,.23,0,.34-.01-.07,.07-.17,.14-.31,.18-.2,0-.05-.11-.03-.17Zm-.63,0c-.08,.09,.17,.02,.35,.01,.13,.03-.06,.07,.07,.08,.04,.08-.32,0-.28,.07-.15,.03-.12-.05-.24-.05-.13,.02,.08,.04-.04,.09-.05-.01-.1-.03-.18-.02,.04-.03,.05-.07,.04-.11-.22,.07-.07,.1-.39,.05,0-.07,.18-.06,.33-.07-.05-.02-.11-.04-.18-.05,.13-.09,.26,.07,.52,0Zm-.87-.05c.12-.02,.15,.01,.23,.02,0,.03-.1,.03-.17,.04-.11,.02,.02,.13-.21,.09,0-.03-.01-.06-.02-.08,.12,0,.18-.01,.16-.06Zm1.02-1.08c.16,.12,.37-.03,.54,.12-.32,.01-.46,.07-.63,.03,.02-.05,.15-.06,.09-.14Zm5.78-7.26c-.23-.04,.27,.02,.05-.03,.08-.03,.28,.03,.4,.01,0,.03-.1,.03-.17,.03-.06,0-.03,.06-.1,.06-.04,.06,.01-.08-.19-.08Zm.28,.27s.02,.05,.07,.05c-.31,.09-.03-.18,.21-.09,.02,.06-.2,.02-.28,.04Zm.54,.12c-.07,0-.06,.09,.02,.08-.26,.05-.09-.04-.25-.13,.08,.04,.27,0,.35,.04,0,.04-.11,.03-.11,0Zm.22-.37c.04-.11,.23,0,.45-.05,.06,.1-.39,.07-.45,.05Zm.16-.09c-.26-.04-.26-.05-.48-.12,0-.09,.24-.04,.29,.02,.25-.16,.65-.04,.96-.1,.06,.12,.21,.01,.36,.1-.22,.1-.87-.04-1.13,.11Zm1.3-.11c0-.07,.06-.11,.21-.12,.05,.03,.09,.07,.08,.14-.13,.01-.22,0-.29-.02Zm3.93-.84c.14,.06,0,.11,.03,.19-.26,0-.16-.05-.46,0-.11-.09,.19-.03,.16-.09,0-.08-.37,.05-.3-.07,.24-.01,.38,.04,.57-.02Zm4.57-.51c-.02,.07-.2,.07-.33,.1-.05-.12,.2-.11,.33-.1Zm-2.19-.04c-.17,.07-.28,0-.46,.02,0-.04-.01-.07-.02-.11,.23-.01,.37,.03,.48,.09Zm-3.1,.67c-.07-.03-.21-.02-.35-.01,0-.09,.39-.15,.35,.01Zm-.5-.54c.07,.08-.36,.09-.33,.07-.07-.1,.22-.05,.33-.07Zm-.96-.21c-.07,.09-.4,.05-.52,0-.02-.16,.43-.05,.52,0Zm.09,1.48c-.12,.05-.42,0-.48-.09,.17,.08,.4-.05,.48,.09Zm-.47,1.22c-.13,.07-.07,.09-.02,.2-.3,.01-.37-.08-.51,.05-.24-.04-.53-.31-.12-.33-.06,.14,.49,0,.65,.08Zm-.33-.26c.03,.07-.26,0-.16,.09-.07-.02-.16-.03-.29-.02-.09-.17,.33-.12,.45-.08Zm-.18-1c-.01,.06-.28,.02-.39,.05-.01-.12,.3-.1,.39-.05Zm-1.68-.71c.27-.01,.53-.02,.8-.03,0,.15,.16,.09,.36,.07,.15,.04-.33,0-.09,.12-.21,0-.28-.09-.47-.04,0-.03,0-.06-.01-.08-.19,.01-.29,.07-.51,.02-.05,0-.04,.04-.05,.06-.17-.01,.04-.06-.02-.11Zm-.34,.04c.08-.11,.1,.06,.18,.05-.04,.08-.28,.08-.44,.1-.12-.12,.47-.08,.26-.15Zm-1.39-.05c.06,.09-.04,.12-.08,.17-.18,0-.3-.05-.31-.15,.13,0,.27-.01,.4-.02Zm-.51,.02c-.14,.13,.2,.06,.15,.22-.36-.11-.85-.15-1.24-.17,.31-.11,.8,.04,1.08-.05Zm-27.58-9.66c.17-.01,.35,0,.53,0,0,0,0-.01,0-.02l.04,.02s-.03,0-.05,0c0,.03-.02,.06-.04,.09-.08,.09-.25,.11-.47,.1-.05,0-.15-.04-.14-.06,.02-.05,.07-.13,.12-.13Zm-4.56,.24c-.25,.03-.51,.06-.56,.06-.47-.02-.75-.02-.9-.16-.03-.03-.03-.08,0-.11,.05-.05,.18-.14,.2-.13,.18,.05,.33,.12,.51,.17,.24,.07,.65-.09,.75,.16Zm-1.73-.78s.17-.04,.27-.06c0,0,0-.02,.02-.02l.03,.02s-.03-.02-.03-.02c.01,0,.03,0,.04,0,.04-.06,.06-.12,.14-.14,.12-.03,.23,.03,.15,.08-.05,.04-.18,.05-.29,.06,0,0,0,.02-.02,.02-.01,0-.03,0-.04,0-.02,.02-.03,.05-.05,.07-.02,.03-.05,.06-.09,.07-.11,.04-.21-.03-.13-.08ZM6.93,37.02s-.1-.09-.11-.15c0-.02,0-.04,.02-.07,.01-.03,.03-.05,.05-.08h0s.05,0,.07,0c.02,0,.04,0,.06,.02,.11,.09,.08,.2-.08,.28Zm123.28-12.59c.06,0,.06,.03,.08,.05-.06,0-.11-.01-.18-.01-1.49,.19-1.99,.64-2.11,1.16-.28-.02-.65,.01-.92-.09-.22,.05-.51,.19-.63,.03-.18,0-.14,.08-.27,.1-.12-.01-.01-.16-.14-.16,0,.08-.17,.04-.27,.12-.12-.1-.41-.09-.5-.2,.16-.04,.58-.11,.36-.21-.16,.19-.54,.24-.86,.21-.14-.05-.29-.09-.43-.13-.03-.02-.06-.04-.08-.07-.07,0-.07,.02-.06,.03-.09-.03-.19-.05-.28-.08-.01-.02-.02-.04-.03-.07,.08,0,.15,0,.23-.01,0-.23-.27-.22-.57-.22,.05-.04,.11-.08,.15-.14,.23-.02,.53,.02,.87,.02,.08-.1-.02-.08-.14-.13,.14-.06,.32-.06,.51-.04-.02,.06-.04,.11-.06,.17-.08,.01-.16,.03-.25,.03,0,.04,.04,.06,.07,.08,.04,0,.08,0,.11,0-.03-.05,0-.07,.05-.08-.02,.07-.04,.14-.06,.21-.04-.01-.07-.02-.09-.04-.23,0-.34,.11-.51,.05-.07,.06,.08,.09-.09,.14,.23,.03,.41,0,.21-.09,.13,0,.29,0,.46,0,0,0,0,0,0,0,0,.03,.17,.11,.26,.17,.02-.06,.04-.11,.06-.17,.2,0,.39-.02,.53-.09-.11,.01-.13-.03-.23-.02,0,.03-.14,.05-.28,.06,.02-.06,.04-.12,.07-.19,0,0-.01-.02-.02-.03,.04,0,.07,0,.09,0-.03,0-.07,0-.06-.03,.07,0,.16,0,.17-.04-.07-.01-.15,0-.23,0-.03-.05-.05-.09-.08-.14,.25,.02,.5,.04,.67-.08-.15,0-.31-.02-.53-.06,1.02-.02,1.51,.03,2.52-.03,0,.04-.09,.05-.1,.09,.24-.02,.29-.12,.55-.14,.01,.03,0,.08,.07,.08,0-.04,.12-.02,.17,0,.03-.09-.19-.03-.19-.1,.34-.13,.78-.02,1.24-.14,.11,.08,.38,.06,.54,.12,.05-.13-.09-.17,.13-.23,.13,.12,.41,.23,.06,.33Zm3.7-2.81c-.04,.09-.19,0-.23-.02,.04-.04,.18-.05,.28-.07,0,.03-.07,.02-.11,.03,0,.03,.02,.05,.07,.05Zm-.14-.16c-.21-.15-.63,.04-.79,.09-.09-.07-.24-.11-.37-.15-.01,.05,.1,.07,.01,.08-.18,0-.25-.06-.36-.1,0,.08-.04,.09-.13,.1-.17-.26-.37-.44-.59-.57,.26-.05,.64,0,.81,.03,.16,0-.08-.06-.01-.08,.62,.13,1.17,.35,1.56,.58-.03,.02-.07,.02-.13,.03Zm-7.83-.38s.09,0,.13,0c-.05,.01-.1,.02-.15,.03,0,0,.02-.02,.02-.03Zm.64,1.03c.16-.01,.23-.02,.32-.03,0,.02,0,.04,0,.06-.14,.04-.29,.06-.31-.04Zm2.71,.09s0,0,0,0c0,0,0,0,0,0,0,0,0,0,0,0Zm1.29,2.05c-.15,0-.1-.1-.25-.1,.09-.09,.41,.04,.25,.1Zm.82-.23c.04,.09-.09,.1-.02,.2-.18-.01-.48,.03-.53-.06,.48,.02,.33-.09,.55-.14Zm1.93-1.43c-.15-.03-.22,.09-.29,.01,0-.05,.19-.03,.16-.09-.18,.01-.18-.08-.41-.04-.07,.15-.91,.22-.8,.04-.24,.07-.39,.06-.15,.15-.22-.05-.58,0-.5,.08-.02-.05-.19-.01-.19-.08,.03-.06,.34,0,.27-.1-.02-.08-.39,.04-.41-.04,.15,0,.03-.11,.21-.09-.12,.09,.1,.09,.24,.05-.1,.05,0,.1,.19,.08-.17-.09-.11-.12,.08-.17-.34,.01-.68-.02-.98-.01,.11,0-.18,.06-.15,.12-.43,.05-.55-.07-.98-.01,.09-.03,.04-.06,0-.09,.04,0,.07,0,.1,0,.13,.03,.38,0,.39,0-.07,0-.04-.03,0-.06-.14,.03-.25,.03-.33,0,.04-.04,.08-.11,.12-.2,.02,0,.04,0,.06,0,0,.05,.03,.09,.08,.11,.11-.02,.4,.03,.33-.07-.4,.06-.22-.1-.42-.18,0-.02,.01-.03,.02-.05,0-.03,.03-.05,.05-.08,.15,0,.29,0,.42,.02-.06-.01-.09-.04,0-.04,.16,0,.28,.02,.36,.07-.04-.11,0-.06,.16-.06,0-.05-.07-.06-.08-.11,.21,0,.39-.04,.54-.04,.08,.05,.16,.11,.24,.2,.02,.03,.05,.04,.07,.07-.37,.07-.86-.04-1.1,0,.12,.07,.38,.04,.48,.12-.42,.01-.57-.13-.83-.13,.05,.15,.31,.17,.5,.23,.11,.16-.48,.06-.59,.22,.3-.03,.61-.08,.83-.2,.22,.13,.43,.1,.77,.13-.15-.11-.15-.01-.09-.16-.14-.03-.2,.08-.23,0,.04-.07,.28-.06,.32-.13,.13,.04,.18,.06,.35,.01,0,0,0-.01-.01-.02,.03,0,.05-.02,.08-.03,0,0-.01,.01,0,.02,.08,.01,.12,.05,.13,.11-.15,0-.3,.01-.46,.02,.11,.09-.03,.15,.21,.19,.01-.07-.11-.06-.08-.14,.18,0,.5-.03,.48,.09-.03-.09,.65,.04,.38-.1,.11,0,.19,0,.24,.05,.05,.09-.02,.13-.02,.2,.14,0,.24,.04,.36,.07-.09,0-.02,.08-.1,.09Zm-.02-.14c.09-.1,.24,0,.21-.12,.25-.02,.29,.03,.46-.02-.03,.16-.39,.14-.66,.14Zm.41,.07c.34,.04-.06,.09-.22,.07,.04-.05,.11-.09,.21-.12,.13,.01,.3,.01,.41,.04-.07,.13-.2-.02-.4,.02Zm-.38-.51s.1,.07,.01,.08c-.13-.09-.29,0-.52,0-.03-.05-.04-.12-.19-.1,.1,.13-.25,.09-.28,.04,0,.02,0,.05-.05,.06-.08-.08,.26-.11,.09-.14,0,.04-.1,.04-.16,.05,.07-.05,.11-.1,.12-.15,.11,.03,0,.08,.21,.09-.04-.09,.27-.16,.39-.1-.03,.05-.17,.03-.04,.09,.14-.12,.4-.03,.37-.16,.26,.08,.33-.04,.64,.03,.06-.07-.05-.09,.04-.11,.08,.05,.16,0,.24-.02,.14,.11,.24,.22,.26,.32-.31,.09-.85,.13-1.14,.04Zm4.31-3.26c0-.18,.29-.07,.61-.11-.07,.09-.46,.05-.61,.11Zm1.76-.13s.12-.04,.22-.04c.02,.04-.05,.05-.04,.09,0,.03,.07,.02,.12,.02-.06,.07-.37,.03-.3-.07-.43,.05-.75,0-1.19-.06,.35-.05,.73-.07,1.1-.08-.02,.03-.15,.03-.15,.07,.11,0,.25,0,.24,.07Zm.77-2.13c.1,0,.21,0,.32,0l-.36,.08s-.02-.07,.04-.08Zm-.09,.09l-.27,.06c-.06-.01-.11-.03-.14-.05,.1,0,.29-.05,.41-.01Zm-2.38-.41c.12,.05,.22,.07,.11-.03,.23,.06,.67,0,.82,.1,.01,.07-.08,.09-.03,.17-.29,.09-.82,.06-1.19,.08,.02,.05,.05,.09,.13,.11-.02-.06,.03-.09,.16-.09,.06,.06,.06,.07,.02,.14,.14-.01,.28-.02,.29,.04-.08,0-.15,0-.23,.01,0,.14,.46,.18,.6,.14-.09-.01-.15-.04-.19-.08,.08-.01,.09-.05,.16-.06,.23,.01,.09,.09,.2,.13,.1-.08,.06,.06,.12,.05,.04-.04,.07-.09,.21-.09,0,.02,0,.04,.01,.06l-.38,.09s0-.08-.13-.05c0,.02,0,.02,.01,.04-.62-.11-1.04-.21-1.32-.31,.1-.03,.2-.06,.33-.07-.23-.02-.49-.11-.73-.15-.04-.06-.05-.11-.02-.17,.02,0,.03,0,.06-.01,0,.04-.07,.04-.04,.09,.46-.02,.23,.19,.72,.16,.09-.05,.12-.12,.26-.15-.14-.01-.03-.13,.03-.14Zm.59-1.19s0-.04,0-.06c.06-.01,.13-.02,.23-.02,.01,.06-.12,.08-.22,.08Zm.23-.39c-.2-.02-.1-.05-.35-.01-.05-.11,.39-.07,.35,.01Zm-3.46-1.02c.07-.08,.32,0,.3,.07-.22,.05-.15-.07-.3-.07Zm-7.2,1.64c-.04,.08-.09,.15-.17,.21,0-.06-.02-.13-.02-.19,.01,0,.02-.02,.04-.02,.05,0,.1,0,.15,0Zm-40.18-6.76h0s-.02,0-.03,0c0,.12-.12,.21-.32,.21-.39,0-.78-.04-1.16-.09-.06,0-.09-.1-.12-.16-.01,0-.03,0-.04,0,0,0,0-.02-.01-.03-.09-.02-.2-.03-.24-.07-.06-.06,.04-.11,.14-.07,.06,.03,.08,.09,.1,.14,.02,0,.03,0,.05,0,0,0,0,0,0,.01,.11-.02,.23-.03,.3-.07,.35-.17,.67-.15,1,.02,.08,.04,.2,.06,.3,.09,0,0,0,0,0,0,.01,0,.03,0,.04,0,.02-.02,.03-.05,.05-.07,.02-.03,.05-.06,.09-.07,.12-.03,.22,.02,.14,.08-.06,.04-.17,.05-.27,.06,0,0,0,.01-.01,.02h0Zm-2.07-2.12s-.11-.01-.15-.03c-.1-.04-.22-.08-.29-.14-.06-.04-.06-.11-.09-.16,.12-.02,.24-.03,.35-.05,.23,.01,.36,.08,.33,.2-.01,.06-.09,.12-.15,.18Zm23.69,4.4c-.15-.02-.3-.04-.45-.05,.02-.03,.03-.06,.04-.09,.11,.01,.22,.05,.31,.13,.02,.02,.06,.02,.1,.02Zm-5.21-6.12c.54-.09,.82,.23,1.3,.25,.05,0,.1,.09,.14,.14-.12,.02-.25,.05-.37,.07-.19,.03-.3,.1-.35,.2,0,0,.01,0,.02,0,0,0,0,.02,0,.03,.17,0,.35,0,.52,.02,.05,0,.14,.05,.14,.05-.04,.04-.09,.11-.15,.12-.17,.02-.35,0-.53,0,0,0,0,.01,0,.02,0,0,0,0-.01,0,.09,.09,.18,.18,.25,.27,.05,.06,.14,.15,.09,.2-.28,.29-.69,.51-1.3,.59-.07,0-.18-.07-.28-.1,.27-.17,.53-.33,.16-.56-.29-.18-.63-.25-1.06-.25-.06,0-.11-.04-.17-.09-.02-.01-.04-.03-.06-.04,.03-.01,.05-.03,.08-.04,.03-.01,.05-.02,.08-.02,.73,0,1.47,.02,2.2,.04,0,0-.01-.01-.02-.02,.01,0,.02,0,.03,0,0-.07,.01-.13,.02-.2-.01,0-.03,0-.04,0,0-.01,.02-.02,.02-.03-.51-.05-.68-.32-1.01-.49-.04-.02-.06-.06-.09-.09,.12-.02,.25-.05,.37-.07Zm-2.9-.15s.08-.06,.14-.07c.03,0,.11,0,.13,.02,.17,.15,.28,.33,.5,.45,.32,.18,.37,.01,.45-.13,.03-.05,.15-.08,.24-.12,.05,.06,.13,.13,.13,.19-.02,.42-.08,.44-1.01,.41-.5-.02-.6-.07-.61-.31,0-.14,0-.29,.03-.44Zm-3.14,.27s.07,.02,.11,.03c0,.02,.01,.05,0,.06-.08,.05-.17,.04-.23-.04,0,0,.08-.04,.13-.05Zm-.71,1.23c.1-.11,.22-.17,.45-.16,.27,0,.62-.05,.81,.02,.66,.25,1.41,.23,2.14,.28,.1,0,.22,.09,.25,.15,.05,.11-.03,.23-.25,.26-.27,.03-.52,.05-.54,.24,.44,.12,.8,.36,1.41,.1,.25-.11,.78-.03,1.19-.01,.08,0,.17,.1,.2,.17,.07,.13-.09,.23-.29,.23-1.5-.02-3.01-.07-4.51-.1-.31,0-.47-.08-.52-.26-.03-.1-.19-.19-.31-.27-.12-.09-.38-.18-.36-.25,.03-.13,.24-.25,.35-.38Zm-13.25-1.14c.25,.05,.48,.12,.73,.18,.32,.07,.65,.1,.97,0,.11-.03,.28-.1,.33-.08,.92,.37,1.99,.12,2.97,.23,.65,.07,1.31,0,1.96,.21,.42,.13,1.06,.07,1.6,.09,1.07,.04,2.16-.03,3.15,.29,.3,.1,.79-.08,1.02,.17-.37,.15-.79,.05-1.18,.05-.34,0-.68-.01-1.02-.02,0,0,0,0,0,0-.55-.01-1.09-.03-1.64-.04-.41,0-.79,0-1.17,.13-.29,.1-.72,.12-.94-.02-.32-.2-.59,.02-.84-.03-.31-.06-.61-.15-.86-.27-.3-.13-.64-.09-.96-.14-.42-.07-.75,.21-1.1,.09-.44-.16-.92-.11-1.38-.14-.4-.03-.82-.04-1.23-.04-.37,0-.67-.06-.88-.22-.11-.08-.18-.19-.2-.29-.02-.11,.37-.2,.65-.14Zm-6.98-1.9c.21-.09,.35-.34,.74-.14,.23,.12,.34-.05,.5-.04,.09,0,.26,.07,.25,.09-.05,.09-.1,.22-.23,.26-.15,.05-.38,.02-.54,.02-.23-.02-.43-.02-.62-.05-.18-.02-.23-.09-.11-.14Zm-2.11,.62s.1,0,.13,0c.1,.04,.07,.09-.08,.12-.02,0-.08-.04-.1-.07,0-.01,.04-.04,.06-.05Zm-1.11-.73s.13,.06,.12,.08c0,.03-.12,.08-.14,.07-.18-.06-.17-.11,.02-.15Zm-1.29,.64s.12,.06,.12,.08c0,.03-.12,.08-.14,.07-.18-.06-.17-.11,.02-.15Zm-.34-.44s.11,.05,.11,.07c0,.02-.08,.04-.13,.06-.04-.01-.08-.02-.12-.04,.05-.03,.09-.07,.14-.1Zm-2.12,.63s.08,.05,.11,.07c-.04,.02-.09,.04-.13,.06-.04-.01-.07-.02-.11-.03,.04-.03,.09-.06,.13-.09Zm-8.29-.82c.15-.06,.35-.07,.55-.11,.18,.05,.34,.1,.51,.15-.11,.03-.22,.07-.34,.1-.12,.03-.24,.05-.36,.07-.06,.01-.12,.03-.18,.05-.13,.04-.25,.02-.28-.07-.02-.06,.02-.16,.1-.19Zm-1.75,1.28s.04-.02,.07-.02c.03,0,.08,.02,.11,.03,0,.02,0,.04-.01,.06-.08-.01-.16-.03-.24-.04,.02,0,.04-.02,.07-.03Zm-2.58-2.32s.08,.05,.12,.07c-.05,.02-.09,.04-.14,.06-.04-.01-.08-.02-.12-.03,.05-.03,.09-.06,.14-.1Zm-1.73,.84s.07,.05,.12,.09c-.05,.02-.13,.07-.15,.06-.18-.06-.17-.11,.03-.15Zm-3.18,.35s.01-.02,.02-.02h0s.03,0,.05,0c.03-.16,.23-.2,.5-.19,.05,0,.11,.03,.15,.06,.08,.05,.04,.11-.12,.13-.17,.02-.35,0-.53,0,0,0,0,.01,0,.02-.02,0-.04,0-.06,0-.04,.05-.08,.1-.13,.14,0,0-.13,0-.13-.01-.03-.12,.11-.13,.26-.13Zm-5.22-1.04s0,.01,0,.02c.39-.01,.86,.03,1.13-.07,.39-.15,.65,.18,1.04-.01,.26-.13,.78-.09,1.12-.18,.4-.11,.79-.07,1.19-.06,.22,0,.37,.06,.41,.19,.04,.14-.12,.22-.32,.23-.34,.02-.68,0-1.02,.01-.06,0-.12,.08-.14,.13,0,.01,.09,.06,.15,.07,.2,.01,.41,.01,.61,.03,.06,0,.11,.04,.16,.06,.08,.05,.03,.12-.15,.12-.53,.02-1.05,0-1.57,.15-.3,.09-.9,.1-1.16,0-.5-.2-1.34-.21-1.43-.66-.01,0-.03,0-.05,0l.04-.02ZM7.59,12.32s-.09-.05-.13-.07c.05-.02,.1-.05,.16-.07,.04,.03,.08,.06,.13,.09-.05,.02-.11,.06-.16,.06Zm-.48,4.05c0-.08,.06-.14,.15-.18,.09-.04,.21-.05,.36-.03,.03,.02,.08,.05,.12,.08,.04,.03,.07,.05,.06,.05-.18,.1-.37,.18-.56,.27-.04-.06-.13-.12-.12-.18Zm-1.18,3.62c.08-.12,.16-.25,.26-.34,.15-.14,.31-.28,.49-.35,.16-.06,.3,0,.37,.13-.12,.16-.24,.33-.3,.49-.03,.1-.13,.18-.23,.27-.08,0-.16,0-.24,0-.12-.07-.24-.13-.36-.2Zm4.42,6.67c-.05,0-.1-.09-.15-.14,.05-.05,.11-.13,.16-.13,.05,0,.1,.09,.16,.14-.07,.05-.12,.13-.17,.13Zm2.35,6.62s0,0,0,0c0,0,0,0,0,0-.11-.06-.23-.13-.34-.19,.12-.06,.24-.17,.36-.17,.12,0,.23,.12,.35,.19-.12,.06-.25,.12-.37,.18Zm1.05-.49s-.06-.07-.09-.11c.08-.02,.16-.03,.23-.05,0,0,0,0,0,0,0,.05-.09,.1-.15,.15Zm11.14,6.58s-.09-.08-.12-.14c-.01-.03,.03-.09,.05-.13,.05,0,.11-.02,.14,0,.11,.08,.08,.19-.08,.27Zm.96,1.76c-.08,.11-.18,.08-.25-.08,0-.01,.08-.1,.13-.12,.03-.01,.08,.04,.12,.06,0,.05,.02,.11,0,.14Zm1.85-10.22c-.13,0-.23-.05-.31-.13,.16,.04,.33,.07,.5,.08-.06,.03-.12,.04-.19,.05Zm.68,10.72c-.06-.05-.13-.1-.19-.15,.04-.05,.09-.09,.13-.14,.04,.05,.08,.1,.12,.15l-.06,.13Zm3.35-8.87s-.09-.1-.13-.15c.05-.04,.1-.13,.14-.12,.05,0,.09,.09,.14,.14-.05,.04-.1,.09-.16,.13Zm4.78-.06c-.06,.04-.11,.11-.17,.12-.53,.12-.96-.03-1.25-.57-.03-.05-.04-.13-.02-.17,.04-.06,.13-.14,.17-.12,.29,.12,.57,.25,.85,.39,.03,.09,.06,.18,.07,.28,.11-.04,.21-.07,.31-.11,.02,.01,.05,.02,.07,.03,0,0-.02,.09-.03,.14Zm1.21,.07s-.09-.08-.12-.14c-.01-.03,.04-.08,.07-.13,.04,0,.1-.01,.13,.01,.11,.09,.08,.19-.08,.25Zm89.73-5.95s-.07-.07-.11-.11c0-.1,.01-.22,.01-.32,.22,0,.44-.02,.63,.02,0,0,.02,0,.02-.01,0,.05,.02,.1,.02,.15-.21,.09-.4,.18-.58,.28Z" style="fill:#f2f4f3;"/><path d="M158.86,31.45c.77-1.06-3.26-1.9-5.88-2.38l-1.97,.43c1.44,.96,.23,2.47,4.14,3.14,1.65,.18,3.46-1.01,3.72-1.2Z" style="fill:#f2f4f3;"/><path d="M159.59,27.97l.26-1.37-1.05,1.26c.37-.03,.43,.13,.79,.1Z" style="fill:#f2f4f3;"/><path d="M146.26,30.22l1.84-.15c-.6-1.63-.55-.46-3.36-.9l2.08,.5c.06,.16-.98,.42-.56,.55Z" style="fill:#f2f4f3;"/><path d="M6.56,29.53c-.52-.03-1.12,.18-1.42,.28-.37,.33,.6,.62,1.05,.88,.52,.03,1.86-.85,.36-1.17Z" style="fill:#f2f4f3;"/><path d="M152.7,19.08l-2.01,.22c1.16,.95,.36,2.09,2.52,3.08-.02,0-.05,0-.08,0,.09,.07-.15,.12,.02,.14,.06-.04,.18-.06,.28-.05,.31,.13,.68,.26,1.11,.38,1.63,.35,3.54-.64,3.81-.8,.86-.97-3.08-2.24-5.65-2.99Z" style="fill:#f2f4f3;"/><path d="M159.15,17.98c-.07,0-.15-.03-.18,.02,.04,.01,.09,.02,.14,.02l-.16,.15s-.05,0-.06,.03c0,0,.02,0,.03,0l-.3,.29c.19,0,.29,.05,.4,.09-.02,0-.04,.02-.05,.03,.03,0,.07,0,.11,0,.09,.04,.18,.07,.33,.07l.02-.09c.11,0,.19-.02,.21-.07-.08,0-.14,0-.19,0l.06-.22c.42,.08,.89,.17,1.09,.18-.09-.04-.33,0-.3-.1,.24,.03,.15,0,.1-.09,.14,0,.12,.09,.3,.07-.07-.11,.02-.22,.2-.15-.06-.1-.18-.08-.03-.17-.11-.03-.27-.03-.3-.1,.03,0,.06-.02,0-.03-.09,.03-.1,.1-.21,.12-.22-.04-.51-.04-.75-.08l.07-.26c.29,0,.57-.04,.67,0-.02-.05,.23-.12,.03-.17-.07,.11-.4,.12-.68,.1l.09-.3-.28,.28c-.06-.01-.12-.02-.15-.03,.01,.1-.2-.05-.17,.04,.08,.04,.16,.05,.25,.06l-.29,.28Zm.46,.05s0,0-.01,0h0s0,0,.01,0Z" style="fill:#f2f4f3;"/><path d="M123.79,11.09c.71,0,1.34-.31,2.72-.2-.07,.02-.12,.03-.21,0,0,.07,.09,.09,.24,.07,0-.03,0-.05,.03-.07,.05,0,.1,0,.15,.01,.31-.16,.41-.36,.37-.56,.35-.01,.83,.06,1.13-.01-.35-.03-.73-.05-1.13-.05-.14-.39-.81-.77-1.55-.87-.6,.51-3.11,.85-1.74,1.68Z" style="fill:#f2f4f3;"/><path d="M5.62,17.21c.52,0,1.83-.94,.31-1.18-.52,0-1.11,.24-1.41,.35-.35,.35,.64,.59,1.1,.83Z" style="fill:#f2f4f3;"/><path d="M11.43,5.13c.15-.07,.27-.19-.02-.23-.27-.04-.47-.08-.52-.23-.36,.08-.72,.16-1.06,.25-.03,0-.02,.13,.04,.17,.51,.32,.95,.33,1.56,.05Z" style="fill:#f2f4f3;"/><path d="M114.31,5.04c.11-.25,.5-.19,.82-.19-.02-.23-.35-.35-.68-.42-.21-.05-.52-.03-.73,.03-.25,.07-.17,.23-.19,.37,.26,.07,.52,.15,.78,.22Z" style="fill:#f2f4f3;"/><path d="M6.45,11.95c-.13-.09-.26-.18-.42-.24-.09-.04-.27-.06-.37-.04-.3,.06-.08,.15-.04,.25,.07,.13,.09,.27,.13,.4,.13,0,.25,.02,.38,.01,.42-.03,.56-.2,.31-.37Z" style="fill:#f2f4f3;"/><path d="M5.76,12.32s-.02,0-.03,0c0,0,0,.01,0,.02,.01,0,.02,0,.04,0,0,0,0-.01,0-.02Z" style="fill:#f2f4f3;"/><path d="M99.58,3.82c.14,0,.27,0,.41,.01,0-.15,.01-.29,.02-.44-.12,0-.25-.02-.37-.02-.42,.01-.42,.01-.2,.25,.05,.06,.09,.12,.14,.18Z" style="fill:#f2f4f3;"/><path d="M7.21,7.38c.08-.05,.1-.12,.15-.19-.07-.04-.17-.12-.19-.12-.12,.03-.23,.08-.31,.13-.07,.05-.14,.11-.16,.16-.02,.07,.38,.09,.52,0Z" style="fill:#f2f4f3;"/><path d="M5.82,13.37s.11,0,.12-.01c.06-.1,.13-.19,.15-.29,.03-.15-.06-.26-.36-.28-.01,.17-.03,.34-.03,.51,0,.03,.07,.06,.12,.08Z" style="fill:#f2f4f3;"/><path d="M5.73,12.78s0-.02,0-.02c-.02,0-.02,0-.04,0v.02s.02,0,.04,0Z" style="fill:#f2f4f3;"/><path d="M5.76,14.59c-.06,.06-.16,.12-.16,.17,0,.17,.21,.25,.52,.21,.06-.02,.11-.04,.17-.06-.12-.09-.24-.18-.37-.26-.04-.03-.11-.04-.16-.07Z" style="fill:#f2f4f3;"/><path d="M88.83,2.33c-.11-.14-.3-.09-.47-.07-.05,0-.09,.04-.14,.06,.15,.04,.31,.08,.47,.11,.03,0,.11-.07,.15-.1Z" style="fill:#f2f4f3;"/><path d="M69.48,2.07c-.09,.02-.23,.05-.25,.09-.05,.15,.03,.26,.34,.28,0-.1,.03-.2,.02-.3,0-.03-.1-.08-.12-.07Z" style="fill:#f2f4f3;"/><path d="M69.58,2.44s0,.01,0,.02c.01,0,.02,0,.03,0,0,0,0,0,0-.01-.01,0-.02,0-.03,0Z" style="fill:#f2f4f3;"/><path d="M100.41,3.1s-.14-.06-.22-.08c-.02,0-.1,.04-.11,.07-.02,.09-.03,.19-.04,.29,.13,0,.25,0,.38,0,0-.1,.02-.19,0-.28Z" style="fill:#f2f4f3;"/><path d="M115.68,5.08c.05,0,.15-.04,.15-.05-.01-.05-.05-.14-.1-.14-.17-.02-.36-.02-.54-.02,.02,.16,.22,.22,.49,.21Z" style="fill:#f2f4f3;"/><path d="M115.18,4.86s0-.01,0-.02c-.02,0-.03,0-.05,0,0,0,0,.01,0,.02,.02,0,.03,0,.05,0Z" style="fill:#f2f4f3;"/><path d="M122.34,10.33c.08-.09,.17-.17,.22-.26,0-.02-.16-.06-.24-.09-.25,.07-.15,.17-.1,.27,.02,.03,.08,.05,.11,.08Z" style="fill:#f2f4f3;"/><path d="M5.69,12.75c.01-.14,.02-.28,.04-.42-.18,0-.33,.05-.37,.15-.05,.15,.05,.25,.33,.27Z" style="fill:#f2f4f3;"/><path d="M48.7,.09s-.08-.06-.12-.09c-.05,.02-.13,.04-.14,.07,0,.02,.07,.05,.11,.08,.05-.02,.1-.04,.15-.07Z" style="fill:#f2f4f3;"/><path d="M50.32,.1s-.07-.05-.1-.07c-.04,.02-.09,.04-.13,.06,.05,.02,.11,.05,.16,.07,.02-.02,.05-.04,.07-.06Z" style="fill:#f2f4f3;"/><path d="M47.05,.26s-.09-.07-.14-.07c-.04,0-.1,.04-.15,.06,.04,.02,.09,.05,.14,.07,.04-.02,.1-.04,.15-.06Z" style="fill:#f2f4f3;"/><path d="M51.54,.58s-.07-.07-.12-.07c-.04,0-.09,.04-.14,.06,.06,.02,.12,.05,.19,.07,.02-.02,.05-.04,.07-.06Z" style="fill:#f2f4f3;"/><path d="M52.7,.57s-.08,0-.12,0c-.02,.02-.07,.04-.06,.06,.02,.03,.08,.07,.1,.07,.15-.03,.17-.08,.08-.12Z" style="fill:#f2f4f3;"/><path d="M50.65,.75s-.08-.03-.11-.03c-.05,0-.09,.03-.13,.05l.24,.04s0-.04,0-.06Z" style="fill:#f2f4f3;"/><path d="M75.29,1.76s-.11-.02-.12-.01c-.05,.05-.09,.1-.13,.14,.15,0,.28-.02,.25-.13Z" style="fill:#f2f4f3;"/><path d="M75.04,1.9s-.05,0-.07,0c0,0,.01,.02,.02,.03,0,0,.02,0,.03,0,0,0,.02-.02,.02-.03Z" style="fill:#f2f4f3;"/><path d="M84.79,2.03s-.07-.05-.11-.08c-.05,.02-.14,.05-.13,.07,.05,.11,.15,.12,.24,.01Z" style="fill:#f2f4f3;"/><path d="M80.37,2.25s-.04,0-.06,0c0,0,0,.01,0,.02,.01,0,.03,0,.04,0,0,0,.01-.01,.02-.02Z" style="fill:#f2f4f3;"/><path d="M80.63,2.11s-.12-.02-.13-.01c-.05,.05-.09,.1-.14,.15,.16,0,.29-.01,.26-.14Z" style="fill:#f2f4f3;"/><path d="M82.58,2.28c.05-.02,.14-.04,.15-.07,0-.03-.07-.06-.12-.09-.05,.02-.13,.05-.14,.07,0,.03,.07,.06,.11,.09Z" style="fill:#f2f4f3;"/><path d="M87.63,2.35s0-.05,0-.07c-.04-.01-.08-.04-.11-.03-.05,0-.14,.05-.13,.06,.06,.08,.15,.1,.24,.05Z" style="fill:#f2f4f3;"/><path d="M90.52,2.83s-.08-.07-.13-.08c-.04,0-.13,.04-.14,.06,0,.02,.07,.05,.11,.08,.05-.02,.11-.04,.16-.06Z" style="fill:#f2f4f3;"/><path d="M91.74,2.87s-.08-.06-.12-.09c-.05,.02-.13,.04-.14,.07,0,.02,.07,.05,.11,.08,.05-.02,.1-.04,.14-.07Z" style="fill:#f2f4f3;"/><path d="M96.12,3.26s.09-.05,.14-.07c-.03-.02-.09-.08-.11-.08-.2,.03-.21,.09-.03,.15Z" style="fill:#f2f4f3;"/><path d="M91.22,4.17s-.08-.05-.11-.07c-.05,.02-.09,.04-.14,.06,.06,.03,.12,.05,.18,.08,.02-.02,.05-.04,.07-.06Z" style="fill:#f2f4f3;"/><path d="M122.07,5.13s-.09-.06-.13-.08c-.05,.02-.13,.04-.14,.07,0,.02,.07,.05,.11,.08,.05-.02,.1-.04,.16-.07Z" style="fill:#f2f4f3;"/><path d="M123.25,5.19s0-.04,0-.07c-.03,0-.08-.04-.1-.03-.05,0-.13,.05-.13,.05,.06,.08,.15,.1,.22,.04Z" style="fill:#f2f4f3;"/><path d="M128.4,6.68s.1-.04,.16-.06c-.05-.02-.1-.07-.13-.07-.2,.03-.21,.08-.03,.13Z" style="fill:#f2f4f3;"/><path d="M10.94,4.63s-.04,0-.07,0c0,.01,.01,.02,.02,.03,0,0,.02,0,.03,0,0,0,.02-.02,.02-.03Z" style="fill:#f2f4f3;"/><path d="M11.19,4.5s-.12-.02-.13,0c-.05,.04-.09,.09-.13,.14,.14,0,.28-.01,.25-.13Z" style="fill:#f2f4f3;"/><path d="M107.39,7.29s.05-.04,.07-.06c-.04-.02-.07-.06-.11-.07s-.09,.03-.13,.05c.06,.02,.12,.05,.17,.07Z" style="fill:#f2f4f3;"/><path d="M117.19,8.77s-.12-.02-.13-.01c-.05,.04-.08,.09-.12,.14,.14,0,.28,0,.25-.12Z" style="fill:#f2f4f3;"/><path d="M116.94,8.89s-.04,0-.06,0c0,0-.02,.02-.02,.03,.02,0,.04,0,.06,0,0,0,.02-.02,.02-.02Z" style="fill:#f2f4f3;"/><path d="M7.79,6.47s-.07-.05-.11-.08c-.05,.02-.13,.05-.14,.07,0,.02,.07,.06,.11,.08,.05-.02,.09-.05,.14-.07Z" style="fill:#f2f4f3;"/><path d="M116.73,9.05s.08-.09,.12-.14c-.14,0-.27,.01-.25,.13,0,0,.12,.02,.13,0Z" style="fill:#f2f4f3;"/><path d="M118.46,9.05s-.07-.05-.11-.07c-.05,.03-.09,.06-.14,.09,.04,.01,.07,.02,.11,.04,.04-.02,.09-.04,.13-.06Z" style="fill:#f2f4f3;"/><path d="M118.77,9.69s-.08-.03-.11-.03c-.05,0-.09,.03-.14,.05,.08,.01,.16,.03,.24,.04,0-.02,0-.04,0-.06Z" style="fill:#f2f4f3;"/><path d="M7.55,7.87s.09-.04,.14-.06c-.04-.03-.09-.08-.11-.08-.2,.03-.21,.08-.03,.14Z" style="fill:#f2f4f3;"/><path d="M98.86,6.34s-.09-.04-.12-.03c-.05,0-.09,.03-.14,.05,.08,.02,.16,.03,.24,.05,0-.02,.01-.04,.02-.06Z" style="fill:#f2f4f3;"/><path d="M99.49,6.56s-.04,.07-.02,.07c.08,.03,.17,.05,.26,.07,0-.08-.01-.15-.24-.14Z" style="fill:#f2f4f3;"/><path d="M100.02,6.88c.05,0,.08-.08,.12-.14-.12,0-.24,0-.36,0,.01,.08,.02,.17,.24,.15Z" style="fill:#f2f4f3;"/><path d="M99.78,6.73s0-.02,0-.03c-.02,0-.03,0-.05-.01,0,.01,0,.03,0,.04,.02,0,.03,0,.05,0Z" style="fill:#f2f4f3;"/><path d="M100.15,6.72s0,.01-.01,.02c.02,0,.03,0,.05,0l-.04-.02Z" style="fill:#f2f4f3;"/><path d="M49.22,2.37s.09-.04,.14-.06c-.04-.02-.08-.05-.11-.07-.05,.03-.09,.06-.14,.09h0s.08,.02,.12,.04Z" style="fill:#f2f4f3;"/><path d="M202.68,19.05c.11,.01,.42,.06,.46,0-.11-.01-.42-.06-.46,0Z" style="fill:#f2f4f3;"/><path d="M200.22,18.83c0,.09,.24,.04,.3,.1,0-.04,.02-.06,.04-.09-.13,0-.18-.04-.35-.01Z" style="fill:#f2f4f3;"/><path d="M199.24,18.79c.2,0,.5,.09,.64,.03-.16-.02-.47-.11-.64-.03Z" style="fill:#f2f4f3;"/><path d="M198.83,18.77c.15-.03,.12,.05,.24,.05,.19-.09-.22-.16-.24-.05Z" style="fill:#f2f4f3;"/><path d="M197.5,18.69c.35,0,1.06,.11,1.21,.03-.39,0-.87-.11-1.21-.03Z" style="fill:#f2f4f3;"/><path d="M191.48,21.39c.19-.02,.55,.02,.56-.08-.21,.07-.48-.04-.56,.08Z" style="fill:#f2f4f3;"/><path d="M191.9,20.86c-.12,.02-.47-.04-.63,.03,.36-.02,.45,.09,.63-.03Z" style="fill:#f2f4f3;"/><path d="M191.3,21.37c-.35,.01-.7,.02-.9,.1,.21-.03,.85,.04,.9-.1Z" style="fill:#f2f4f3;"/><path d="M188.67,20.81c.28-.04,.96,.06,1.27,0-.4,.02-1.05-.21-1.27,0Z" style="fill:#f2f4f3;"/><path d="M186.57,11.24c-.14,0-.14-.1-.36-.07,.03,.06,.31,.12,.36,.07Z" style="fill:#f2f4f3;"/><path d="M186.06,10.99c0,.2-.35-.02-.52,0-.04,.19,.5,.06,.55,.2-.04-.06,.22-.14-.03-.19Z" style="fill:#f2f4f3;"/><path d="M186.44,21.83c.1,.07,.57,.01,.51-.02-.24,0-.38-.02-.51,.02Z" style="fill:#f2f4f3;"/><path d="M184.22,21.31c-.36,.03-.42,.07-.74,.03-.03,.11-.02,.14,.15,.19,.16-.13,.73-.06,1.01-.16-.21,.02-.39,.02-.41-.07Z" style="fill:#f2f4f3;"/><path d="M183.07,17.79c.04,.08,.14,.12,.31,.13,0-.1-.22-.08-.31-.13Z" style="fill:#f2f4f3;"/><path d="M181.64,21.34c.03,.08,.2,.07,.25,.13,.01-.04,.07-.06,.04-.11-.07-.02-.16-.03-.29-.01Z" style="fill:#f2f4f3;"/><path d="M180.97,21.45c.24-.02,.63,.02,.61-.11-.18,.02-.54-.06-.61,.11Z" style="fill:#f2f4f3;"/><path d="M179.56,17.75c.39-.03,.64-.04,.78-.12-.31,.06-.83-.1-.78,.12Z" style="fill:#f2f4f3;"/><path d="M179.17,16.87c.18-.04,.37,.07,.46-.02-.06-.03-.42-.04-.46,.02Z" style="fill:#f2f4f3;"/><path d="M178.15,22.11c-.08,.13,.32,.09,.29,.02-.13,.01-.22,0-.29-.02Z" style="fill:#f2f4f3;"/><path d="M177.13,21.51c.11,.05,.32,0,.39-.04-.11,.02-.38-.02-.39,.04Z" style="fill:#f2f4f3;"/><path d="M171.52,11.31c1.09-.08,1.96,.04,3.1-.05,.09,.04,.67,.08,.63,0-.2-.03-.29-.12-.54-.12-.83,.06-2.34,.03-3.27,.06,.01,.04,.15,.04,.08,.11Z" style="fill:#f2f4f3;"/><path d="M175.6,17.81c.15-.02,.26-.07,.32-.13-.05,0-.07-.02-.07-.05-.08,0-.21,0-.22,.04,.41,0-.11,.05-.03,.14Z" style="fill:#f2f4f3;"/><path d="M176.08,22.12s-.08,.03-.17,.04c0,.09,.16,.09,.31,.1,.13-.02,.24-.04,.27-.1-.19-.02-.17,.05-.28,.07,0-.06-.03-.1-.13-.11Z" style="fill:#f2f4f3;"/><path d="M173.85,22.16c-.31,0-.66,.09-.81-.02,.08,0,.12,.03,.23,.02-.08-.17-.43,.01-.53-.06,.19-.02,.06-.08,.28-.04,0-.07-.13-.07-.24-.07-.08,.05-.43,.07-.51,.02-.09,.06,.01,.03,.02,.11,.16-.02,.57-.03,.36,.07-.12-.13-.49,.01-.64-.06,.07-.02,.1-.06,.09-.12-.22,.03-.18,0-.27,.1-.17-.03,.1-.13-.13-.11-.2,0,.05,.09-.28,.07,.09-.08-.59-.06-.62,.06,.26,0,.35,.03,.51-.05,.82,.21,2.01,.22,3.01,.09,.08,.06,.26,.05,.36,.1,.33-.09,1.13,.08,1.13-.11-.48,.06-1.29-.02-1.95,0Z" style="fill:#f2f4f3;"/><path d="M172.03,17.77c.08-.05,.08-.12,.2-.15-.09,.15,.49,.01,.26,.16,.27,.01,.5,.01,.68-.06-.29,.03-.13-.07-.08-.11-.1,0-.18,0-.23-.02-.13,.05-.04,.12-.09,.14-.22-.03-.19-.09-.38-.18-.19,.06-.26,0-.46,0,.01,.16-.42,.03-.56,.11,0-.04-.08-.03-.07-.08-.17,.05-.39,.02-.57,0-.02,.03-.05,.07-.1,.09-.69-.13-1.33-.03-1.8-.12,0,.02,0,.04,0,.06,.02,.02,.01,.05,.07,.05,1.07,.05,1.78,.14,3.12,.11Z" style="fill:#f2f4f3;"/><path d="M171.12,11.33c.1-.02,.23-.02,.28-.07-.13-.06-.27-.04-.28,.07Z" style="fill:#f2f4f3;"/><path d="M172.13,17.35c.02,.07,.1,.1,.25,.1-.01-.05,.03-.06,.11-.03,0-.03,0-.06-.02-.08-.16,.03-.17,.03-.34,.02Z" style="fill:#f2f4f3;"/><path d="M171.23,17.47c.05-.12-.47-.09-.46,0,.21-.03,.28,.02,.46,0Z" style="fill:#f2f4f3;"/><path d="M168.73,17.63c-.22,0-.35-.04-.42-.12-.18,.1,.41,.22,.42,.12Z" style="fill:#f2f4f3;"/><path d="M168.31,18.49c.21-.03,.43,.1,.57,0-.18,.01-.45-.08-.57,0Z" style="fill:#f2f4f3;"/><path d="M167.34,11.75c-.02,.08-.13-.02-.23,.01-.05,.15,.44,.04,.23-.01Z" style="fill:#f2f4f3;"/><path d="M169.38,24.84c.12,.01,.17,.06,.35,.04,0-.03-.01-.05-.01-.08-.13,0-.32-.05-.34,.04Z" style="fill:#f2f4f3;"/><path d="M167.69,17.9c.16,0,.29-.02,.33-.07-.11,.02-.4-.03-.33,.07Z" style="fill:#f2f4f3;"/><path d="M165.79,17.6c.11,.15,.39,.03,.65,.08,0-.2-.39-.01-.65-.08Z" style="fill:#f2f4f3;"/><path d="M166.11,16.77c-.05-.02-.37-.04-.4,.02,.05,.02,.37,.04,.4-.02Z" style="fill:#f2f4f3;"/><path d="M165.17,17.32s0-.05,.05-.06c.02,.02,.05,.03,.12,.02,0-.07-.13-.07-.24-.07,0,.07-.09,.09,.08,.11Z" style="fill:#f2f4f3;"/><path d="M164.98,17.58c-.13,.13-.48-.1-.87-.02,.06,.12,.66,0,.49,.17,.32-.06,.42-.09,.8-.04,0-.13-.27-.09-.42-.12Z" style="fill:#f2f4f3;"/><path d="M164.35,18.22c.18-.01,.34-.03,.32-.13-.17,.07-.3,0-.32,.13Z" style="fill:#f2f4f3;"/><path d="M164.54,17.68c-.16-.02-.36-.09-.46,.02,.15-.02,.37,.07,.46-.02Z" style="fill:#f2f4f3;"/><path d="M163.47,16.8c.08-.02,.3,.02,.28-.04-.09-.04-.31-.08-.28,.04Z" style="fill:#f2f4f3;"/><path d="M162.39,12.69c.15-.02,.46,.02,.51-.05-.2,.03-.46-.07-.51,.05Z" style="fill:#f2f4f3;"/><path d="M163.24,17.48c.1-.03,.28-.02,.33-.07-.09-.04-.4-.03-.33,.07Z" style="fill:#f2f4f3;"/><path d="M162.32,12.64c-.21,.05-.12-.07-.29-.04-.24,.09,.32,.17,.29,.04Z" style="fill:#f2f4f3;"/><path d="M159.97,12.66c.23,0,.7,.05,1.1,.06,.2,0,.59,.03,.62-.08-.07,0-.14,0-.12-.05-.18-.01-.05,.1-.28,.07,0-.03,.09-.07-.02-.08-.31,.11-.9,.02-1.31,.08Z" style="fill:#f2f4f3;"/><path d="M162.39,16.88c-.12-.01-.17-.06-.35-.04-.01,.07,.32,.1,.35,.04Z" style="fill:#f2f4f3;"/><path d="M162.29,20.23c.05,.06,.03,.18,.19,.1-.15-.04,.33-.04,.33-.1-.23,.03-.3-.03-.52,0Z" style="fill:#f2f4f3;"/><path d="M161.76,16.91c.11,0,.19-.03,.22-.07-.1,0-.26-.03-.34,.01,.06,0,.09,.03,.12,.05Z" style="fill:#f2f4f3;"/><path d="M160.69,11.23c-.33-.02-1.03-.08-1.37,.03,.5-.07,1.16,.07,1.37-.03Z" style="fill:#f2f4f3;"/><path d="M161.33,18.07c-.1,.07,.16,.11,.21,.19-.03-.06,0-.11,.03-.14-.17,.04-.15-.04-.24-.05Z" style="fill:#f2f4f3;"/><path d="M161.08,16.99c-.2-.03-.34,0-.21,.09,.19,.02,.17-.05,.21-.09Z" style="fill:#f2f4f3;"/><path d="M161,18.11c.17,0-.08,.05-.04,.09,.12,0,.16,.05,.24,.07-.02-.07-.03-.13,.03-.17-.1,.03-.21-.07-.23,0Z" style="fill:#f2f4f3;"/><path d="M160.92,18.65s0,.09-.04,.11c.15,0,.27-.03,.33-.07-.18,.03-.18-.04-.3-.04Z" style="fill:#f2f4f3;"/><path d="M159.96,18.77c-.17-.04,.02-.12-.15-.19,.03,.06-.39,.06-.21,.09,.27-.07,.17,.23,.36,.1Z" style="fill:#f2f4f3;"/><path d="M159.61,18.4c.07,.05,.1,.12,.25,.13,0-.09-.09-.13-.25-.13Z" style="fill:#f2f4f3;"/><path d="M158.92,14.21c0-.08-.15-.07-.3-.07-.01,.09,.14,.08,.3,.07Z" style="fill:#f2f4f3;"/><path d="M159.26,17.71c-.19,.05-.38-.06-.46,.02,.19,0,.42,.13,.46-.02Z" style="fill:#f2f4f3;"/><path d="M157.84,11.35c.48-.03-.2-.08-.23,0,.14,.05,.1,0,.23,0Z" style="fill:#f2f4f3;"/><path d="M157.11,17.61s0-.06-.01-.08c-.18,.02-.25-.06-.28,.04,.17-.03,.12,.07,.29,.04Z" style="fill:#f2f4f3;"/><path d="M156.07,17.88c0,.05,.08,.06,.08,.11,.2-.11,.8,.03,.85-.09-.56,0-.61-.02-1.22-.06,.03,.14,.1,.15,.3,.04Z" style="fill:#f2f4f3;"/><path d="M155.73,17.92c-.04-.13-.37-.09-.6-.11,.09,.1,.39,.08,.6,.11Z" style="fill:#f2f4f3;"/><path d="M155.74,23.12c-.04,.11,.73,.02,.58,0-.32,0-.33,.01-.58,0Z" style="fill:#f2f4f3;"/><path d="M154,17.25c.07,0,.07,.04,.07,.08,.17-.1,.46-.04,.55-.14-.19,.03-.54-.01-.62,.06Z" style="fill:#f2f4f3;"/><path d="M154.41,18.88c.28,0,.23-.2,.02-.2-.03,.08,.09,.07,.08,.14-.07,0-.13,.01-.1,.06Z" style="fill:#f2f4f3;"/><path d="M153.8,15.5c-.13,.02-.42-.02-.45,.05,.1,0,.48,.07,.45-.05Z" style="fill:#f2f4f3;"/><path d="M153.78,17.62c0-.08,.26-.07,.32-.13-.19,.03-.37-.11-.52,0,.23-.05,.03,.14,.2,.13Z" style="fill:#f2f4f3;"/><path d="M152.99,15.75c-.11,.1-.31,.05-.38,.13,.3,0,.45-.07,.67-.11-.16,.03-.15-.03-.29-.01Z" style="fill:#f2f4f3;"/><path d="M153.56,17.35c-.08,0-.41-.05-.57,.03,.14,0,.39,.04,.57-.03Z" style="fill:#f2f4f3;"/><path d="M153.48,17.55c-.24-.07-.3,0-.57,.02-.02-.02-.01-.05-.07-.05,.01,.05,0,.09-.04,.11,.24,.01,.26-.07,.45-.08,0,.04-.09,.05-.1,.09,.04,0,.08,0,.11,0,0,.02,.01,.03,.06,.03-.07-.09,.18-.05,.15-.12Z" style="fill:#f2f4f3;"/><path d="M153.52,17.8c-.19,0-.59-.05-.74,.03,.29,0,.54,.07,.74-.03Z" style="fill:#f2f4f3;"/><path d="M151.87,14.63c-.18,.02-.05-.14-.25-.1,0,.07,.03,.11,.08,.14,.07,0,.16,0,.17-.04Z" style="fill:#f2f4f3;"/><path d="M152.42,18.68c-.14,.07,.11,.14-.02,.2,.26,0,.09-.14,.02-.2Z" style="fill:#f2f4f3;"/><path d="M151.56,17.41c.08,0,.21,0,.22-.04-.31-.08,.15-.04,.15-.12-.26,0-.42,.03-.37,.16Z" style="fill:#f2f4f3;"/><path d="M152.59,26.41c.41,.01,.77,.02,.98,.04-.14-.11-.79-.07-.98-.04Z" style="fill:#f2f4f3;"/><path d="M150.28,10.57c.1,0,.14-.03,.16-.06-.19,.03-.09-.11-.3-.07-.03,.09,.17,.05,.14,.13Z" style="fill:#f2f4f3;"/><path d="M151.53,18.86c-.11-.09-.39-.08-.54-.14-.17,.1,.17,.05,.25,.1-.06,0-.06,.03-.11,.03-.15-.03-.21-.1-.42-.09,.15,.15,.57,.15,.82,.1Z" style="fill:#f2f4f3;"/><path d="M150.71,15.55c-.1,0-.18,0-.23-.02,.1,.07,.23,.13,.38,.18,.01-.09-.19-.06-.14-.16Z" style="fill:#f2f4f3;"/><path d="M151.2,18.65c-.06,0-.11,0-.17,0,.06-.06-.11-.13-.12-.05,.04,0,.07,0,.06,.03-.1,0-.14,.03-.16,.06,.12-.02,.38,.02,.39-.05Z" style="fill:#f2f4f3;"/><path d="M151.59,22.46c-.16,.02-.42-.06-.51,.02,.17,0,.49,.08,.51-.02Z" style="fill:#f2f4f3;"/><path d="M149.97,18.85c.07,0,.07,.04,.07,.08,.3,.02,.3-.08,.44-.13-.06-.02-.41,0-.51,.05Z" style="fill:#f2f4f3;"/><path d="M148.71,12.42s.07-.04,.04-.09c-.11,.01-.12-.03-.18-.05-.08,.05,.02,.12,.14,.13Z" style="fill:#f2f4f3;"/><path d="M149.67,21.65c.08,.04,.27,0,.35,.04,0-.09-.33-.14-.35-.04Z" style="fill:#f2f4f3;"/><path d="M148.66,16.64c.11,.03,.38,.12,.4,.01-.05,0-.07-.02-.07-.05-.17,.1-.17-.04-.34,.04Z" style="fill:#f2f4f3;"/><path d="M148.63,18.74c.05,.11,.62,.22,.71,.11-.15,.02-.21,0-.19-.08-.22,.11-.35-.13-.52-.03Z" style="fill:#f2f4f3;"/><path d="M148.13,13.65c-.12-.07-.43-.06-.45,.05,.14-.03,.37,.03,.45-.05Z" style="fill:#f2f4f3;"/><path d="M147.88,14.53s0,.04,0,.06c0,.02,.01,.03,.06,.03,0-.09,.29,.07,.22-.07-.16,.03-.15-.03-.29-.02Z" style="fill:#f2f4f3;"/><path d="M148.6,18.54c-.1-.03-.66-.02-.5,.08,0-.07,.25-.03,.23,.02-.07,.03-.16,.05-.21,.09,.11,0,.4,.05,.45-.05-.35-.02,.17-.04,.03-.14Z" style="fill:#f2f4f3;"/><path d="M147.9,18.18c.23-.03,.45,0,.45-.07-.21,.03-.41-.03-.3-.1-.34,.03,.1,.1-.14,.17Z" style="fill:#f2f4f3;"/><path d="M147.57,14.73c-.21,.05-.23-.17-.41-.04,.12-.01,.19,.01,.19,.08,.08,0,.41-.01,.22-.04Z" style="fill:#f2f4f3;"/><path d="M147.6,15.18s.1-.03,.1-.06c-.13-.01-.37-.09-.4,.02,.18-.03,.22,.01,.29,.04Z" style="fill:#f2f4f3;"/><path d="M147.09,17.85c.27-.04,.41,0,.58,.03-.01-.03,0-.08-.07-.08-.06,.07-.2-.06-.35-.04,.11,.09-.19,.03-.16,.09Z" style="fill:#f2f4f3;"/><path d="M147.09,15.57c-.09,0-.19,0-.29,.01,.07,.09-.14,.06-.15,.12,.11,0,.12,.07,.29,.04,.06-.04,.05-.07-.02-.11,.09,0,.2,0,.16-.06Z" style="fill:#f2f4f3;"/><path d="M146.24,22.08c.02,.05-.05,.06-.04,.11,.44-.02,.76-.08,1.04,.01,.14-.09,.61-.04,.72-.14-.28,0-.61-.02-.91,.04-.15-.03,.12-.12-.13-.11,0,.06-.28,.15-.17,.04-.21-.03-.02,.1-.16,.09-.14-.12-.24,.07-.35-.04Z" style="fill:#f2f4f3;"/><path d="M146.91,19.71c-.05-.02-.37-.04-.4,.02,.21-.04,.19,.05,.3,.07-.03-.05,.07-.06,.1-.09Z" style="fill:#f2f4f3;"/><path d="M147.14,21.34c-.1,.08-.51,.03-.55,.14,.2-.03,.48,0,.55-.14Z" style="fill:#f2f4f3;"/><path d="M146.43,20.26c.14-.04,.29,.07,.34-.02-.18,.02-.16-.07-.3-.07,0,.04-.02,.06-.04,.09Z" style="fill:#f2f4f3;"/><path d="M146.14,18.29c.11,0,.06,.11,.24,.07,.06-.09-.19-.15-.24-.07Z" style="fill:#f2f4f3;"/><path d="M147.13,22.6c-.14,.04-.29-.07-.34,.02,.05,0,.07,.02,.07,.05,.14,0,.23-.02,.28-.07Z" style="fill:#f2f4f3;"/><path d="M147.02,22.27c-.17,0-.29,.04-.33,.1,.11,0,.06,.09,.19,.08,0-.07,.16-.09,.14-.17Z" style="fill:#f2f4f3;"/><path d="M145.59,14.54c-.08,0-.15,0-.23,0,.03,.05,.04,.12,.19,.1,.01-.05-.1-.07-.01-.08,.03,0,.07,0,.05-.03Z" style="fill:#f2f4f3;"/><path d="M146.23,20.1s.15-.02,.16-.06c-.18,.05-.19-.15-.29-.04,.15-.03-.02,.13,.13,.11Z" style="fill:#f2f4f3;"/><path d="M145.33,21.51c.18,.08,.35-.06,.57-.05,.01,.03,0,.08,.07,.08-.03-.11,.45-.02,.5-.11-.33-.03-.92-.06-1.14,.08Z" style="fill:#f2f4f3;"/><path d="M145.3,18.13c.11-.02,.4,.03,.33-.07-.22,0-.27-.02-.33,.07Z" style="fill:#f2f4f3;"/><path d="M146.09,20.61c-.12-.01-.18-.06-.35-.04,.05,.06,.34,.14,.35,.04Z" style="fill:#f2f4f3;"/><path d="M146.1,21.95c-.18-.03-.36-.02-.39,.07,.18,0,.31-.03,.39-.07Z" style="fill:#f2f4f3;"/><path d="M144.02,11.87c-.19,0-.27,.04-.27,.12,.14-.02,.29-.04,.27-.12Z" style="fill:#f2f4f3;"/><path d="M144.62,18.16c-.19-.04-.24,.02-.46,0-.04,.1,.44,.05,.46,0Z" style="fill:#f2f4f3;"/><path d="M145.17,22.21c-.06-.08,.07-.08,.03-.14-.21-.02-.2,.15-.03,.14Z" style="fill:#f2f4f3;"/><path d="M145.52,26.1c-.21,.04-.18-.06-.35-.04-.02,.12,.31,.11,.35,.04Z" style="fill:#f2f4f3;"/><path d="M144.11,22.4c.14-.02,.22-.06,.33-.1-.17,0-.38,0-.33,.1Z" style="fill:#f2f4f3;"/><path d="M143.43,17.32c-.21,0-.27-.07-.42-.09-.05,.12,.29,.17,.42,.09Z" style="fill:#f2f4f3;"/><path d="M143.41,22.04c0,.07-.17,.07-.21,.12,.28-.03,.62-.04,.66-.17-.25,0-.3,.16-.45,.05Z" style="fill:#f2f4f3;"/><path d="M143.95,26.03c-.07,.11,.46,.11,.4,0-.18,.02-.27,0-.4,0Z" style="fill:#f2f4f3;"/><path d="M142.87,22.56c.27-.06,.44,0,.61-.11-.15-.07-.36,.07-.52,0,.05,.07-.1,.06-.09,.12Z" style="fill:#f2f4f3;"/><path d="M141.76,16.61c.02-.06,.27-.02,.1-.09,.04,0,.11,0,.11-.03-.17-.02-.36,.09-.21,.12Z" style="fill:#f2f4f3;"/><path d="M141.47,16.93c.03,.08,.41,.1,.47,.06-.18,0-.25-.08-.47-.06Z" style="fill:#f2f4f3;"/><path d="M141.86,18.81c-.06,.09,.49,.07,.4-.02-.21-.01-.27,.07-.4,.02Z" style="fill:#f2f4f3;"/><path d="M140.83,13.35c.05,.11-.16-.02-.16,.09,.19-.01,.35-.03,.45-.08-.14,.02-.13-.05-.29-.02Z" style="fill:#f2f4f3;"/><path d="M140.73,16.35c.15-.02,.28-.06,.38-.1-.13-.04-.47-.02-.38,.1Z" style="fill:#f2f4f3;"/><path d="M140.55,14.71c.09,.03,.15,.1,.08,.14,.35,0,0-.23-.08-.14Z" style="fill:#f2f4f3;"/><path d="M140.45,16.05c-.17,.03-.34,.05-.38,.13,.18-.02,.34-.05,.38-.13Z" style="fill:#f2f4f3;"/><path d="M140.29,19.35c-.04,.06-.1,.11-.14,.17,.18,.01,.24-.16,.14-.17Z" style="fill:#f2f4f3;"/><path d="M138.46,10.36c-.11,.02-.38-.02-.39,.05,.13,0,.38,.05,.39-.05Z" style="fill:#f2f4f3;"/><path d="M140.5,24.06c.15,0,.19,.08,.36,.07-.02-.06-.28-.14-.36-.07Z" style="fill:#f2f4f3;"/><path d="M138.36,12.07c-.15,.02-.35,.03-.45,.08,.12,.04,.46,.01,.45-.08Z" style="fill:#f2f4f3;"/><path d="M139.87,24.12c.23,0,.24-.06,.35,.01,0-.02,0-.03,.05-.03,0-.02,0-.04,0-.06-.22,.02-.37-.05-.39,.07Z" style="fill:#f2f4f3;"/><path d="M137.98,12.17c-.42-.12-1.02-.23-1.62-.07-.2-.05,.19-.07-.02-.11-.27,.1-.88,.02-.9,.1,.75,.03,1.89,.22,2.55,.08Z" style="fill:#f2f4f3;"/><path d="M139.59,24.13c.3-.02,.2-.15,.02-.2-.02,.08-.21,.1-.44,.1-.01,.1,.28,.02,.3,.1,.06-.04,.03-.13,.21-.12,.05,.07-.1,.06-.09,.12Z" style="fill:#f2f4f3;"/><path d="M138.84,22.52c.08,.04,.27,.17,.41,.07-.22,.04-.3-.15-.41-.07Z" style="fill:#f2f4f3;"/><path d="M136.89,12.55c-.1,0-.19,0-.29,.01-.02,.12,.32,.08,.29-.01Z" style="fill:#f2f4f3;"/><path d="M137.97,18.9c-.22-.01-.24,.06-.33,.1,.16,.06,.27-.04,.33-.1Z" style="fill:#f2f4f3;"/><path d="M138.4,22.93c-.19,.05-.29-.11-.4-.01,.11,0,.12,.02,.07,.05,.1-.02,.34,.02,.34-.04Z" style="fill:#f2f4f3;"/><path d="M138.47,23.65c-.22,0-.42,.02-.5,.08,.26-.04,.36,.01,.5-.08Z" style="fill:#f2f4f3;"/><path d="M138.49,23.76c-.24-.03-.39,.11-.26,.15,0-.09,.19-.09,.26-.15Z" style="fill:#f2f4f3;"/><path d="M136.27,13.25s0-.06-.01-.08c-.08,0-.15,0-.23,0,0,.07,.13,.07,.24,.07Z" style="fill:#f2f4f3;"/><path d="M136.97,23.97c0-.13,.43-.08,.55-.16-.25-.02,.13-.12,.22-.04,0-.04,.02-.06,.04-.09-.1-.04-.19,.03-.4,.02,.03,.13-.38,.09-.49,.16,.02,.04,0,.1,.08,.11Z" style="fill:#f2f4f3;"/><path d="M137.14,24.27c.23-.04,.64-.01,.66-.14-.24,.12-.52-.01-.66,.14Z" style="fill:#f2f4f3;"/><path d="M137.07,22.57c.05,.1-.16,.09-.14,.17,.17-.09,.49-.05,.55-.14-.23,.04-.26-.03-.41-.04Z" style="fill:#f2f4f3;"/><path d="M137.02,22.96c.2,0,.16-.11,.26-.15-.17,.02-.21,.08-.26,.15Z" style="fill:#f2f4f3;"/><path d="M136.28,22.99c.02,.08,.15,.1,.25,.13,0-.09-.09-.13-.25-.13Z" style="fill:#f2f4f3;"/><path d="M135.84,24.38c.23-.07,.52,0,.62-.08-.27,.04-.58-.07-.62,.08Z" style="fill:#f2f4f3;"/><path d="M135.06,22.29c.23-.03,.33,.01,.52,0-.05-.15-.42-.09-.52,0Z" style="fill:#f2f4f3;"/><path d="M134.78,23.31c.23-.05,.71,.03,.68-.06-.3,.04-.56-.06-.68,.06Z" style="fill:#f2f4f3;"/><path d="M132.49,10.4c-.15,0-.32,.02-.4-.01,.03,.11,.32,.07,.4,.01Z" style="fill:#f2f4f3;"/><path d="M134.65,23.17c-.15,.02-.31,.03-.39,.07,.07,.03,.36,0,.39-.07Z" style="fill:#f2f4f3;"/><path d="M132.24,13.56c.08-.02,.3,.02,.28-.04-.18,.02-.28-.02-.19-.08-.08,.02-.3-.02-.28,.04,.12-.01,.19,.01,.19,.08Z" style="fill:#f2f4f3;"/><path d="M132.28,21.18c.16,0,.43-.08,.27-.12,.05,.1-.34,.02-.27,.12Z" style="fill:#f2f4f3;"/><path d="M132.66,23.01c.14,0,.28,0,.28-.07-.18,.02-.23-.03-.35-.04,0,.05,.03,.09,.08,.11Z" style="fill:#f2f4f3;"/><path d="M132.98,24.45c-.14-.01-.29-.1-.28,.04,.08-.02,.3,.02,.28-.04Z" style="fill:#f2f4f3;"/><path d="M133.05,25.84s.02-.06,.04-.09c-.18,.04-.58,0-.44,.1,.05-.08,.3-.01,.4-.02Z" style="fill:#f2f4f3;"/><path d="M132.29,22.86c.18,0,.25-.04,.21-.12-.23-.03-.13,.08-.21,.12Z" style="fill:#f2f4f3;"/><path d="M132.1,22.45c.02-.06,.27-.02,.1-.09,.07,0,.16,0,.17-.04-.14-.08-.39,.1-.27,.12Z" style="fill:#f2f4f3;"/><path d="M129.57,10.5c.29-.03,.44,0,.5-.08-.22,0-.42,.02-.5,.08Z" style="fill:#f2f4f3;"/><path d="M131.08,21.85s.01,.03,.06,.03c.07-.07,.35-.02,.46-.02-.05-.09-.3-.07-.42-.12,.05,.1,.11,.07-.1,.06,0,.02,0,.04,0,.06Z" style="fill:#f2f4f3;"/><path d="M127.73,10.47c.2,.04,.25-.03,.51-.02-.05-.04-.48-.03-.51,.02Z" style="fill:#f2f4f3;"/><path d="M128.53,24.36c0,.09,.29,.14,.3,.04-.17,.03-.12-.07-.3-.04Z" style="fill:#f2f4f3;"/><path d="M127.33,25.03c-.18,0-.34,.01-.39,.07,.08,.03,.4,.01,.39-.07Z" style="fill:#f2f4f3;"/><path d="M126.51,25.26c.08,0,.12-.02,.17-.04,.03,.03,.07,.06,.13,.08,0-.05-.03-.09-.08-.11-.1,.01-.29-.02-.22,.07Z" style="fill:#f2f4f3;"/><path d="M125.73,25.07c-.14,0-.23,.03-.28,.07,.09,.04,.3,.01,.28-.07Z" style="fill:#f2f4f3;"/><path d="M122.54,8.15c0-.06-.03-.11-.08-.14-.19,0-.27,.05-.27,.12,.17-.03,.18,.04,.35,.01Z" style="fill:#f2f4f3;"/><path d="M113.37,10.56c-.2-.04-.58,.01-.7-.08,.02,.05-.05,.06-.04,.11,.29-.1,.62,.1,.74-.03Z" style="fill:#f2f4f3;"/><path d="M195.17,22.09c.07,0,.07,.04,.07,.08-.27-.03-.29-.02-.1,.06-.17,.02-.68,.21-.76,.26,.75-.09,.89-.43,1.54-.37-.3-.03-.53-.09-.75-.02Z" style="fill:#f2f4f3;"/><path d="M183.62,17.93s0,.05-.05,.06c-.09-.03-.14-.02-.17,.04,.24-.05,.36,.01,.46-.02-.15,.01-.06-.11-.24-.07Z" style="fill:#f2f4f3;"/><path d="M182.3,21.54c.07-.05,.55-.06,.38-.13-.12,.03-.29,.03-.38,.13Z" style="fill:#f2f4f3;"/><path d="M179.28,17.79s-.09-.07-.12-.02c.06,.02,.28,.1,.35,.01-.08,0-.06-.05-.12-.05,0,.03-.06,.05-.1,.06Z" style="fill:#f2f4f3;"/><path d="M174.61,17.71c0,.08,.2,.05,.3,.07-.08-.1,.1-.09,.15-.15-.19,.05-.31,.06-.45,.08Z" style="fill:#f2f4f3;"/><path d="M167.7,17.68c.11-.01,.12,.03,.18,.05-.04-.04,.04-.15-.08-.14-.1,.12-.44-.02-.5,.11,.16,0,.39-.04,.41,.04-.11,0-.19,.03-.22,.07,.19,0,.33-.07,.21-.12Z" style="fill:#f2f4f3;"/><path d="M166.18,22.38s0,.05-.05,.06c-.06,0-.07-.02-.12-.02,.03,.1,.3,.03,.35,.01-.09,0-.06-.07-.18-.05Z" style="fill:#f2f4f3;"/><path d="M162.61,18.46c.28,0-.06,.18,.21,.19,.04-.1-.12-.26-.21-.19Z" style="fill:#f2f4f3;"/><path d="M162.14,20.35c0-.06,.15-.04,.09-.12-.15,.08-.76-.07-.73,.09,.33,.01,.44-.04,.64,.03Z" style="fill:#f2f4f3;"/><path d="M159.9,17.13c.13-.15,.63-.15,.69-.34-.14,.04-.25-.07-.29,.01,.33,.08-.6,.21-.4,.32Z" style="fill:#f2f4f3;"/><path d="M158.63,14.2c-.08-.02-.22-.02-.24-.07,.14,0,.19,.05,.22-.04-.15-.06-.31,.05-.38,.1,.19-.04,.32,.1,.4,.01Z" style="fill:#f2f4f3;"/><path d="M158.82,17.51c0,.18,.47,0,.28-.04,.02,.06-.2,.02-.28,.04Z" style="fill:#f2f4f3;"/><path d="M157.36,18.02c.48-.07,.74-.06,1.05,.09,0-.07,.06-.11,.21-.12,0,.05,.03,.09,.08,.11,.14,0,.21-.05,.21-.12-.55-.06-1.01,0-1.56-.07,.15,.08-.09,.08,.02,.11Z" style="fill:#f2f4f3;"/><path d="M154.51,14.63c0-.06-.17-.02-.19-.08,.05-.06,.26-.05,.33-.1-.09,0-.05-.06-.01-.08-.64,.12-.99,0-1.41,.17,.07,0,.16-.01,.18,.02-.15,0-.27,0-.35-.04-.02-.09,.15-.23,.07-.25-.05,.11-.36,.26-.61,.14-.05,.09,.19,.01,.13,.11-.08,0-.12-.03-.23-.02,.02-.04,.06-.05-.01-.08-.17,.04-.15-.04-.24-.05-.02,.16,.4,.07,.33,.26,.57,.14,1.41-.07,2.08,.05,.13-.04,.03-.06,.1-.09,.12,.09,.21,0,.41,.04-.02-.07,.07-.09,.15-.12,.01,.06,.16,.03,.13,.11-.03,.05-.27,0-.28,.07,.12-.02,.32,.07,.35,.01-.09-.06-.07-.16,.02-.2-.36-.07-.69,0-.96,.1,.03,0,.07,.02,0,.03Z" style="fill:#f2f4f3;"/><path d="M154.73,17.77c-.04,.09,.39,.06,.35,.04-.11-.02-.16-.07-.35-.04Z" style="fill:#f2f4f3;"/><path d="M155.13,18.76c-.08,0-.15,0-.23,.01-.01,.07,.11,.06,.08,.14-.1,.01-.29-.02-.22,.07,.14-.02,.26-.05,.33-.1-.18-.02,.05-.08,.04-.11Z" style="fill:#f2f4f3;"/><path d="M153.3,14.93c.07,.09,.61,.11,.71,.14,0-.02,0-.04-.01-.06-.34-.07-.44-.02-.7-.08Z" style="fill:#f2f4f3;"/><path d="M154.02,15.1s.02-.02,0-.02v.02Z" style="fill:#f2f4f3;"/><path d="M150.85,10.54c.18,.01,.1-.08,.28-.07,.06,.13,.32,.05,.42,.12-.14-.12,.17,.02,.34-.01-.32-.17-.93-.08-1.35-.14,0,.15,.24-.02,.31,.1Z" style="fill:#f2f4f3;"/><path d="M151.92,14.57c.08,.04,.31,.17,.42,.09-.24,.03-.14-.14-.42-.09Z" style="fill:#f2f4f3;"/><path d="M152.29,17.66c-.12-.05-.27-.04-.35-.01,.1,.05,.48,.02,.31,.13,.18-.02,.14,.08,.35,.04,.06-.12-.23-.05-.2-.16,.14-.06,.27,.02,.34-.04-.2,.03-.24-.18-.31-.13,.05,.1-.02,.14-.14,.17Z" style="fill:#f2f4f3;"/><path d="M152.98,22.51c-.08-.02-.12-.05-.13-.11-.09,.02-.37,.08-.27,.1,.14-.09,.48,.09,.4,.01Z" style="fill:#f2f4f3;"/><path d="M149.83,17.71c-.13,.04-.32,.09-.09,.14,.1-.07,.6-.02,.63,0,.16-.03-.05-.09-.02-.14,.17-.02,.22-.08,.32-.13,.08,.02,.18,.04,.24,.07-.09,.05-.25,.07-.32,.13,.2-.06,.32,.04,.51-.02,.07-.07-.17-.1-.02-.11,.28,0,.33,.07,.52,.03,0-.04-.01-.07-.02-.11-.29,0-.37,0-.58,0-.02-.04,0-.1-.08-.11-.12,.08-.61,.11-.64-.06,.28-.04,.43,0,.8-.03,.05-.06,.18-.15-.08-.14-.02,.03-.06,.1-.27,.12-.23-.07-.68-.05-.98-.01,.12,.04,.07,0,.23,0,0,.04,.04,.06,.07,.08-.2,.06-.5,.09-.77,.17-.33,0-.17-.14-.54-.14-.03,.17-.33,.14-.67,.14,0-.03,0-.06-.01-.08-.21,.08-.35-.03-.61,.11,0-.04-.04-.06-.07-.08,.12-.08,1.03-.15,.92-.01,.39-.1,.65-.19,1.13-.11-.06-.05,.15-.1-.02-.11-.24,.05-.54,.07-.75,0-.09,.15-.61,.1-.75,0,.14,0,.28,0,.28-.07-.33-.08-.45-.11-.74,.03,.2,.02,.37-.1,.51-.02-.02,.04-.08,.07-.16,.09-.14-.06-.19-.03-.4-.01,.03-.12-.24-.07-.31-.13-.13,.06,.12,.11-.09,.14-.25-.02-.41,.08-.64-.03,.08-.05,.23-.06,.27-.12-.21,0-.12,.1-.33,.1,0-.07-.13-.07-.24-.07-.27,.1-.79,.04-1,.18-.07-.05-.27-.03-.36-.07,.13,0,.21-.02,.22-.07-.31,.11-.84-.01-.77,.17-.23,.02-.4-.15-.59-.06,.05,0,.11,0,.12,.02-.11,0-.12,.04-.22,.04-.08-.12-.57,.05-.76-.08,.09,.11-.23,.06-.27,.12,.36,.05,.79,.08,1.17,.12-.37,.07-.61,.06-1.02,.07-.02-.05,.3-.12,.04-.11-.16,.18-.6,0-.84,.12,.26,.02,.63-.02,.66,.14,0-.14,.2,.02,.29,.02,.03-.17,.48-.04,.78-.12,.04,.12,.16,.05,.4,.01-.04,.14,.25,.08,.31,.15,.29-.31,1.07-.04,1.26,0-.1,0,.09-.08,.09-.12,.14,0,.23,.19,.36,.1-.06-.03-.21,0-.19-.08,.2-.01,.41-.03,.47,.04,.04-.04,.07-.09,.21-.09,.19,.01,.3,.05,.31,.1-.08-.05,.42,.03,.22-.04-.66-.17,1.23-.18,1.1,.04,.16-.02,.12-.12,.32-.13,.12,.07,.36,.06,.43,.15,.32-.01,.49-.1,.69,0,.1-.05-.04-.08-.08-.14,.14-.03,.3-.1,.4-.02Zm-6.24-.15c-.08-.16,.3-.06,.45-.08-.09,.09-.26,0-.45,.08Zm.52,.03c.12-.07,.29-.01,.4,.01,.01,.08-.45,.11-.4-.01Zm.79-.06c.13-.05,.47-.02,.75,0-.19,.09-.56,.07-.75,0Zm1.87,.14c-.17,.03-.09-.09-.3-.04,.04-.15,.37-.12,.55-.16,.07,.13-.37,.05-.25,.21Zm2.14,.07c0-.1,.4-.15,.45-.08,.05,.13-.31,.09-.45,.08Z" style="fill:#f2f4f3;"/><path d="M150.41,15.17c-.01,.06-.31,0-.27,.1,.09,0,.19,0,.28-.01-.03-.05,.07-.07-.01-.08Z" style="fill:#f2f4f3;"/><path d="M150.85,20.85c-.05-.11,.32-.06,.32-.15-.27,.11-.74,.01-.88,.23-.2,.04-.34-.13-.47-.04,.07,0,.07,.04,.07,.08,.26-.04,.07,.04,.18,.05,.02-.03,.05-.07,.1-.09-.03,.07,.3,.06,.4,.01-.14,.02-.21,0-.19-.08,.26-.02,.22-.03,.46-.02Z" style="fill:#f2f4f3;"/><path d="M148.41,14.25c-.02,.09,.12,.08,.02,.14,.23-.04,.16,.09,.3,.1-.06,0-.11,0-.17,0,0,.04,.01,.07,.02,.11,.28-.05,.53,.08,.64,.03-.09-.08-.4-.03-.53-.09,.16-.16,.73-.21,.91-.04-.16,.03-.15-.03-.29-.02,.06,.1,.69,.1,.68-.03-.4,.02-.54-.12-.78-.19,0,.03,.02,.08-.04,.09,.01-.14-.2,0-.3-.1,.15,.04,.15-.1,.04-.09,0,.07-.17,.07-.21,.12,.15-.03,.12,.05,.19,.08-.11,0-.11,.04-.16,.06-.15-.1-.11-.15-.32-.18Z" style="fill:#f2f4f3;"/><path d="M149.87,14.38c-.1-.06-.23-.09-.37-.12-.04,.12,.33,.15,.37,.12Z" style="fill:#f2f4f3;"/><path d="M148.53,10.39c-.49,.02-.17,.04,.08,.14,.01-.07-.11-.06-.08-.14Z" style="fill:#f2f4f3;"/><path d="M149.35,17.28c.1-.02,.34,.02,.34-.04-.23-.2-.72,.02-.98-.01,.21,.14,.53-.1,.8,0,0,.09-.23-.06-.16,.06Z" style="fill:#f2f4f3;"/><path d="M149.89,18.37c-.57-.02-.14,.01,.02,.11,0-.04-.01-.07-.02-.11Z" style="fill:#f2f4f3;"/><path d="M149.46,16.94c-.1,.06-.37-.05-.58-.03,0,.04,.68,.14,.58,.03Z" style="fill:#f2f4f3;"/><path d="M149.1,16.2c-.36-.03-.54-.05-.91,.04,.24-.01,1.22,.16,.91-.04Z" style="fill:#f2f4f3;"/><path d="M148.2,16.33c-.21,0-.2,.11-.32,.15-.21,.08,.37-.06,.32-.15Z" style="fill:#f2f4f3;"/><path d="M148.49,18.88s.17-.11,.04-.11c-.19,.1-.49,.02-.76-.05-.01,.07,.11,.06,.08,.14-.09-.05-.27-.04-.36,.02-.14-.24-.31-.27-.61-.27,0-.02,.13-.05,.1-.07-.15-.01-.14,.03-.15,.08-.06,0-.13,0-.21,0-.07-.03-.13-.06-.2,0,.02,0,.03,0,.05,0-.23,0-.53,0-.89-.05-.01-.01-.03-.02-.03-.03,.06-.07,.18,.04,.22-.04-.19,0-.41,0-.59,.01-.11-.02-.22-.04-.34-.06,0,0,0,0,0-.02-.02,0-.03,0-.04,0-.11-.02-.22-.05-.34-.08l.26,.09s-.06,.02-.1,.02c.11,.15,.23,.15,.22,.27,.27,0,.32-.06,.46,0,0-.04,.03-.06,.07-.07l.15,.05s-.07-.01-.11-.01c0,.05,.16,.08,.28,.07l.21,.07s-.05,.02-.06,.03c.07,0,.13,0,.18,0l.48,.16c.05,.17-1.02,.32-.6,.49l1.85,.03c-.09-.32-.16-.53-.24-.68,.37-.02,.63-.06,.98-.01Zm-3.57-.37l.08,.03s-.06,.01-.08,.02c0-.02,0-.04,0-.05Zm.14,.16c-.1-.04-.03-.07,.08-.08l.1,.03c-.07,0-.14,0-.18,.05Z" style="fill:#f2f4f3;"/><path d="M147.06,14.76c-.05-.16-.58,0-.68,.06,.1,.01,.47,.13,.36,.07-.06-.05-.22-.04-.25-.1,.28,.04,.3-.07,.57-.03Z" style="fill:#f2f4f3;"/><path d="M146.95,21.57c.11-.01,.12,.03,.18,.05,.08-.15,.58,.02,.73-.09-.27,.02-.51,.01-.64-.06-.02,.16-.19-.04-.27,.1Z" style="fill:#f2f4f3;"/><path d="M147.4,21.5s.17-.01,.34-.04c0-.04-.01-.07-.02-.11-.16,.01-.4,0-.39,.07,.2,0-.11,.1,.07,.08Z" style="fill:#f2f4f3;"/><path d="M145.91,15.39c-.06,0-.11,0-.17,0,.05,.07,.22,.07,.31,.13,.03-.09-.17-.05-.14-.13Z" style="fill:#f2f4f3;"/><path d="M142.9,12.4s0,.08,.07,.08c-.04-.12,.22-.02,.23,.02,.3-.06,.74,0,1.09,0-.09-.07,.1-.14-.02-.14,0,.04-.12,.04-.16,.06-.01-.17-.2-.13-.22-.24-.04,.13-.64-.03-.56,.11-.11,0-.05-.09-.13-.11-.47,.03-1.03,.13-1.43,.03,.1,.1,.13,.04-.04,.11,.34-.05,.82,.22,1.16,.06Z" style="fill:#f2f4f3;"/><path d="M144.74,21.39c.1,.12-.35-.03-.39,.07,.25,.07,.63,0,.85-.07-.21,.03-.28-.02-.46,0Z" style="fill:#f2f4f3;"/><path d="M144.62,18.8c-.08-.06-.43,.05-.36-.1,.08,0,.12,.03,.23,.02,.03-.12-.06-.14,.07-.23-.26-.02-.17,.1-.38,.1,.01-.1,.17-.15-.09-.16,.02,.11-.09,.17-.31,.18,.12-.13-.4-.03-.53-.06,0-.07,.09-.09-.08-.11,.03,.07-.32-.01-.21,.09,.11,.02,.18-.09,.23,0-.23,.11-.71,.08-.85,.07-.14,.18,.65,.09,.87,.07,0,.02,0,.04,.01,.06-.19-.02-.17,.05-.28,.07-.11,0-.15-.05-.29-.04,0,.09,.26,.04,.36,.07,.12-.03,.15-.09,.33-.1,.15,.11,.36,.01,.59,.09-.02-.06,.03-.09,.16-.09,0,.03,.05,.03,.07,.05-.1,0-.14,.03-.16,.06,.25-.03,.39,0,.47,.06-.11-.09,.19-.03,.16-.09Z" style="fill:#f2f4f3;"/><path d="M143.89,22.49c-.1-.1,.15-.06,.09-.14-.09-.04-.41,.03-.16,.06-.12,.01-.39-.12-.4,.02,.26-.04,.47,.04,.25,.1,.08,.07,.53-.06,.53,.06,.14-.09,.27-.07,.44-.1-.2-.08-.54,.09-.75,0Z" style="fill:#f2f4f3;"/><path d="M142.68,19.53c.14,.04,.07,.18,.14,.13,0-.15,.47-.07,.37-.16-.1,.02-.3,.03-.51,.02Z" style="fill:#f2f4f3;"/><path d="M143.77,26.66c-.52,.09-.81-.12-1.16-.03,.31,.11,.87,.13,1.16,.03Z" style="fill:#f2f4f3;"/><path d="M142.95,22.64c-.29,.07-.38-.01-.53-.09,.1,.11,0,.29,.12,.36,.01-.14,.33-.16,.41-.27Z" style="fill:#f2f4f3;"/><path d="M141,18.82c.28,.05,.61-.05,.75,.02-.04-.19,.21-.1,.43-.16,0-.05-.07-.06-.08-.11-.11,0-.23,.01-.34,.02-.02,.11-.41,.05-.45,.05,.01-.04,.07-.06,.04-.11-.14,0-.12,.06-.28,.04-.05,.09,.19,.01,.13,.11-.17-.02-.14,.05-.28,.04-.24-.15-.7-.13-.93-.07,.17,.18,1.38,.04,1.01,.18Z" style="fill:#f2f4f3;"/><path d="M140.67,18.55c-.12-.08-.59-.12-.71-.11,.19,.02-.05,.06-.04,.09,.05,0,.07,.02,.07,.05,.24,0,.06-.11,.15-.12,.09,.08,.33,.07,.53,.09Z" style="fill:#f2f4f3;"/><path d="M142.88,22.93c-.21,.05-.33-.01-.39,.07,.16,.08,.48-.1,.39-.07Z" style="fill:#f2f4f3;"/><path d="M141.97,20.06c.18,.02,.44-.14,.21-.12,.11,.11-.32,0-.21,.12Z" style="fill:#f2f4f3;"/><path d="M142.35,20.24c.03-.09-.17-.05-.14-.13-.08,.02-.3-.02-.28,.04,.28-.05,.23,.09,.42,.09Z" style="fill:#f2f4f3;"/><path d="M142.51,22.47c-.2,0,.12-.11-.08-.11,0,.02,0,.04,.01,.06-.08,0-.21,0-.22,.04,.06,.02,.45,.06,.29,.02Z" style="fill:#f2f4f3;"/><path d="M143.15,26.04c-.07-.01-.13-.02-.18-.05-.13,0-.27,.01-.4,.02-.09,.02,.74,.07,.58,.03Z" style="fill:#f2f4f3;"/><path d="M139.54,15.11c-.29-.16-.68,.08,0,0h0Z" style="fill:#f2f4f3;"/><path d="M139.93,22.8c.24-.07,.59-.1,.71-.23-.21,.12-.68,.09-.71,.23Z" style="fill:#f2f4f3;"/><path d="M139.09,15.5c-.16,.08-.61,.04-.72,.14,.33,.01,.72-.06,.72-.14Z" style="fill:#f2f4f3;"/><path d="M139.7,22.81s.02-.06,.04-.09c-.22,0-.35,.03-.38,.1,.16-.05,.18-.08,.34-.02Z" style="fill:#f2f4f3;"/><path d="M139.67,22.95c-.08-.03-.21-.02-.29-.04,.03,.05-.07,.06-.1,.09,.11,.05,.16-.02,.28-.04,.06,.02,.17,.16,.24,.07-.07,0-.12-.03-.13-.08Z" style="fill:#f2f4f3;"/><path d="M137.97,16.36c.15-.07,.35,.02,.45-.05-.11-.07-.43-.04-.46,0,.07,0,.04,.03,.01,.06Z" style="fill:#f2f4f3;"/><path d="M139.1,22.7s-.09,.07-.22,.07c0-.04,.02-.06,.04-.09-.24,.01-.12,.07-.04,.11,.13,0,.38-.06,.21-.09Z" style="fill:#f2f4f3;"/><path d="M137,12.85c-.18,.01-.24,.07-.38,.1,.2,.02-.3,.1-.03,.14,0-.08,.35-.23,.22-.07,.19,0,.09-.13,.2-.18Z" style="fill:#f2f4f3;"/><path d="M138.88,24.02c-.25,.04-.67,0-.85,.09,.27-.03,.44-.04,.69,0-.11-.09,.19-.03,.16-.09Z" style="fill:#f2f4f3;"/><path d="M137.35,22.89c.48-.1,.9-.03,1.13-.11-.11,0,.03-.11,.03-.14-.3,.01-.43-.12-.63,0-.06-.1-.25-.2,.01-.25,.02,.02,.01,.05,.07,.05-.02-.04,0-.1-.08-.11,0,.05-.09,.07-.22,.07-.03,.18-.14,.18-.17,.34,.04,.04,.22,0,.24,.05-.07,.05-.4-.03-.38,.1Z" style="fill:#f2f4f3;"/><path d="M137.53,23.89c.27-.02,.45,.1,.57-.05-.27,.04-.39,0-.57,.05Z" style="fill:#f2f4f3;"/><path d="M137.48,23.94c.07,.01,.13,.02,.18,.05,0,.03-.09,.07,.01,.08,0-.07,.17-.07,.21-.12-.22,.06-.29-.12-.4-.01Z" style="fill:#f2f4f3;"/><path d="M136.84,22.58c.21-.02,.4-.18,.36-.21,0,.03-.08,.03-.17,.04,.07,.12-.21,.08-.2,.18Z" style="fill:#f2f4f3;"/><path d="M136.88,23.47c.23,0,.2-.13,.37-.16-.25,0-.28,.09-.37,.16Z" style="fill:#f2f4f3;"/><path d="M136.94,23.77c.12-.04,.37-.02,.38-.1-.66,0-.94-.06-1.5-.02,0,.03,0,.07-.1,.06,.1,.02,.55,.04,.75,.02-.06,0-.15-.04-.07-.05,.2,.01,.34,.07,.53,.09Z" style="fill:#f2f4f3;"/><path d="M136.99,25.03c.64,.04,.46-.09,0,0h0Z" style="fill:#f2f4f3;"/><path d="M136.64,23.06c.13,.05,.38,0,.45-.05-.24,.08-.37-.06-.45,.05Z" style="fill:#f2f4f3;"/><path d="M135.93,22.62c.12,.04,.4,0,.37,.12-.07-.02-.16-.03-.29-.02,.09,.09,.35,.21,.54,.14,.02,.08-.09,.06,.02,.11,.04,0,.08,0,.11,0,0-.02,0-.03,.05-.03,.05-.09-.19-.01-.13-.11,.1-.04,.33-.02,.39-.07-.17,.04-.15-.04-.24-.05,.02,.06-.2,.02-.28,.04,.05-.08,.04-.12-.03-.19-.19,.07-.56,0-.51,.05Z" style="fill:#f2f4f3;"/><path d="M136.47,22.45c-.13-.04-.33,.06-.5,.08,.17,.06,.37-.04,.5-.08Z" style="fill:#f2f4f3;"/><path d="M135.96,22.81c-.05-.12-.23-.05-.35-.01,.09,.07-.15,.12,.03,.14,.03-.1,.13-.16,.32-.13Z" style="fill:#f2f4f3;"/><path d="M132.09,13.32c.15-.03,.4-.14,.37-.16-.12,.04-.37,.02-.38,.1,.07,0,.04,.03,.01,.06Z" style="fill:#f2f4f3;"/><path d="M133.98,23.31s-.33-.05-.34,.02c.04,.07,.22,.19,.26,.16-.26-.12,.17-.17,.08-.17Z" style="fill:#f2f4f3;"/><path d="M132.02,13.29c-.12,.03,.06-.14-.07-.05,0,.02,0,.03-.05,.03-.07,0-.06-.05-.12-.05-.18,.07,.18,.15,.24,.07Z" style="fill:#f2f4f3;"/><path d="M133.26,21.2s-.21,0-.23-.02c.12,.03,.26-.06,.1-.06-.19,.06-.08,.09-.2,.18,.15,0,.5-.05,.33-.1Z" style="fill:#f2f4f3;"/><path d="M133.65,23.08c-.03-.18-.36-.12-.54-.14-.02,.07-.21,.07-.14,.17,.11-.15,.46,.01,.21-.12,.26-.03,.36,.03,.48,.09Z" style="fill:#f2f4f3;"/><path d="M133.24,24.32c-.14,.06-.27-.02-.34,.04,.2,0,.38,.17,.59,.06-.18,.02-.38-.03-.25-.1Z" style="fill:#f2f4f3;"/><path d="M133.19,25.33c.34,.02,.25-.39,.23-.35-.07,.12-.05,.27-.23,.35Z" style="fill:#f2f4f3;"/><path d="M132.29,25.15c0-.11,.34-.09,.37-.18-.17,.03-.53,.11-.37,.18Z" style="fill:#f2f4f3;"/><path d="M126.81,13.38c.52,.02,.45,.05,.81,.02-.2-.09-.34-.04-.54-.14,.23,.18-.3-.09-.27,.12Z" style="fill:#f2f4f3;"/><path d="M126.46,13.34s0-.1-.08-.11c-.08,.08-.43-.07-.45,.05,0-.05-.09-.07-.12-.02,.07,0,.12,.03,.13,.08,.13,0,.16-.05,.34-.04,.04,.08,.11,.01,.19,.1-.04-.08,.23,.06,.22-.04-.11,0-.06-.09-.19-.08,0,.02,0,.05-.05,.06Z" style="fill:#f2f4f3;"/><path d="M126.31,25.41c-.08-.05-.17-.09-.25-.13,.04,.08-.21,.04-.21,.09,.26,0,.4,.05,.59,.09,.07-.04,0-.11-.08-.14,0,.03,.02,.08-.04,.09Z" style="fill:#f2f4f3;"/><path d="M166.92,17.46c-.03,.09,.17,.05,.14,.13-.19,.03-.23-.03-.4-.01-.06,.01-.2,.12-.03,.14,.08-.09,.36-.01,.51-.02-.03-.05,.07-.06,.1-.09-.22,0,.07-.21-.31-.15Z" style="fill:#f2f4f3;"/><path d="M146.83,10.86c.02,.11,.31,.25,.42,.12,.33,.17,.94,.32,1.59,.21,.33,.06,.83,.21,1.17,.09,.06,.1,.44,0,.59,.06,0-.03,0-.07,.1-.06,.81,.15,1.6,.03,2.44,.14,0-.15,.41-.04,.5-.11-.23-.01-.34-.09-.54-.12,0,.03,.02,.08-.04,.09-.09-.02-.19-.03-.19-.1-.04-.09,.28-.02,.21-.12-.96,.27-1.71-.34-2.61-.11,0-.05-.06-.07-.13-.08-.18,.16-.59-.09-.74,.06,0-.14-.44-.06-.58-.03-.4-.18-.98-.01-1.46-.13-.05,.04-.19,.04-.21,.09,0-.12-.19-.08-.06,0-.1,0-.18,.01-.22,.04-.05-.09,.09-.09-.02-.14-.16-.03-.12,.14-.17,0-.16,.02-.32,.1-.2,.15,.11,0,.11-.04,.16-.06Z" style="fill:#f2f4f3;"/><path d="M146.21,22.25c-.07-.08-.07-.08-.03-.17-.1,0-.19,0-.28,.01-.09,.07,.08,.09-.03,.14-.1,0-.14-.04-.13-.11-.17,.04-.41,.04-.44,.13,.35-.04,.55,.07,.92-.01Z" style="fill:#f2f4f3;"/><path d="M144.41,20.54c-.38,0-.26-.08-.54-.12-.04,.12,.09,.15,.15,.22,.08-.02,.3,.02,.28-.04-.03,0-.07-.02,0-.03,.04,0,.11,0,.11-.03Z" style="fill:#f2f4f3;"/></g></g></g></g></svg>